<svg id="Слой_1" data-name="Слой 1" xmlns="http://www.w3.org/2000/svg" viewBox="0 0 2948.48 1748.2"><defs><style>.cls-1{fill:#95a6db;}.cls-2{fill:#78a5ff;}.cls-3{fill:#9cc2ff;}.cls-4{fill:#fff;}.cls-5{fill:#3f964f;}.cls-6{fill:#6397ff;}.cls-7{fill:#2c2858;}.cls-8{fill:#aa62cc;}.cls-9{fill:#0e6a41;}.cls-10{fill:#d48fff;}.cls-11{fill:#32186c;}.cls-12{fill:#0c5c38;}.cls-13{fill:#e62552;}.cls-14{fill:#e3eaff;}.cls-15{fill:#cfdaff;}.cls-16{fill:#f37a50;}.cls-17{fill:#de623c;}.cls-18{fill:#201d40;}.cls-19{fill:#18161a;}.cls-20{fill:#062440;}.cls-21{fill:#d4deff;}.cls-22{fill:#768fdb;}.cls-23{fill:#494c7f;}.cls-24{fill:#c4204a;}.cls-25{fill:#4661b3;}.cls-26{fill:#55ab65;}.cls-27{fill:#f5a3b7;}.cls-28{fill:#8cbf95;}.cls-29{fill:#2bbf86;}.cls-30{fill:#f56;}</style></defs><title>Santam_bc</title><path class="cls-1" d="M3207,1949.07H376a18.1,18.1,0,0,1-18.09-18.1h0a18.09,18.09,0,0,1,18.09-18.1H3207a18.1,18.1,0,0,1,18.1,18.1h0A18.11,18.11,0,0,1,3207,1949.07Z" transform="translate(-276.59 -200.87)"/><path class="cls-2" d="M2030.56,376.2v765a60.31,60.31,0,0,1-60.31,60.3H336.9a60.31,60.31,0,0,1-60.31-60.3v-765a60.31,60.31,0,0,1,60.31-60.3H1970.25A60.31,60.31,0,0,1,2030.56,376.2Z" transform="translate(-276.59 -200.87)"/><path class="cls-3" d="M1729.69,965.88h-37.51V897.66a18.76,18.76,0,0,1,18.76-18.76h0a18.76,18.76,0,0,1,18.75,18.76Z" transform="translate(-276.59 -200.87)"/><path class="cls-3" d="M1832.35,965.88h-37.52V856.31a18.76,18.76,0,0,1,18.76-18.76h0a18.76,18.76,0,0,1,18.76,18.76Z" transform="translate(-276.59 -200.87)"/><path class="cls-3" d="M1782.24,965.88h-37.51V813.74A18.75,18.75,0,0,1,1763.48,795h0a18.75,18.75,0,0,1,18.76,18.75Z" transform="translate(-276.59 -200.87)"/><path class="cls-3" d="M1891,965.88h-37.14v-202a18.58,18.58,0,0,1,18.57-18.57h0A18.57,18.57,0,0,1,1891,763.86Z" transform="translate(-276.59 -200.87)"/><path class="cls-3" d="M1954,965.88h-37.14V711.38a18.56,18.56,0,0,1,18.57-18.57h0A18.57,18.57,0,0,1,1954,711.38Z" transform="translate(-276.59 -200.87)"/><path class="cls-3" d="M1675.05,823.63a6,6,0,0,1-3.84-10.62l85.19-70.61a6,6,0,0,1,7.6,0l37.61,30.31,100.81-110.3a6,6,0,1,1,8.86,8.09L1806.67,784.92a6,6,0,0,1-8.2.62l-38.19-30.76-81.41,67.47A6,6,0,0,1,1675.05,823.63Z" transform="translate(-276.59 -200.87)"/><polygon class="cls-3" points="1635.29 492.98 1625.25 471.01 1602.47 462.99 1654.43 439.09 1635.29 492.98"/><rect class="cls-4" x="593.56" y="169.51" width="631.95" height="376.99" rx="22.29"/><path class="cls-3" d="M1476.58,753.47h-61.37c-4.42,0-8-2.73-8-6.1s3.59-6.11,8-6.11h61.37c4.41,0,8.05,2.73,8.06,6.09s-3.51,6.11-7.92,6.12Zm-122.73,0h-61.37c-4.42,0-8-2.73-8-6.1s3.59-6.11,8-6.11h61.37c4.42,0,8,2.74,8,6.11S1358.27,753.47,1353.85,753.47Zm-122.74,0h-61.36c-4.42,0-8-2.73-8-6.1s3.59-6.11,8-6.11h61.36c4.43,0,8,2.74,8,6.11S1235.54,753.47,1231.11,753.47Zm-122.73,0H1047c-4.43,0-8-2.73-8-6.1s3.58-6.11,8-6.11h61.36c4.43,0,8,2.74,8,6.11S1112.81,753.47,1108.38,753.47Zm-122.73,0H924.29c-4.43,0-8-2.73-8-6.1s3.58-6.11,8-6.11h61.36c4.43,0,8,2.74,8,6.11S990.08,753.47,985.65,753.47ZM871.2,739.54c-3.46,0-6.65-1.72-7.68-4.38a19.93,19.93,0,0,1-1.37-7.25V686.73c0-3.37,3.58-6.1,8-6.1s8,2.73,8,6.1v41.18a10.53,10.53,0,0,0,.71,3.79c1.26,3.24-1.17,6.63-5.41,7.59A10.39,10.39,0,0,1,871.2,739.54Zm630.91-21.8c-4.43,0-8-2.74-8-6.11V664.85c0-3.37,3.58-6.1,8-6.1s8,2.73,8,6.1v46.78C1510.12,715,1506.53,717.74,1502.11,717.74ZM870.16,646.06c-4.43,0-8-2.73-8-6.1V593.18c0-3.37,3.58-6.1,8-6.1s8,2.73,8,6.1V640C878.17,643.33,874.58,646.06,870.16,646.06Zm631.95-21.88c-4.43,0-8-2.73-8-6.1V571.3c0-3.37,3.58-6.11,8-6.11s8,2.74,8,6.11v46.78C1510.12,621.45,1506.53,624.18,1502.11,624.18ZM870.16,552.51c-4.43,0-8-2.74-8-6.11V499.63c0-3.38,3.58-6.11,8-6.11s8,2.73,8,6.11V546.4C878.17,549.77,874.58,552.51,870.16,552.51Zm631.95-21.88c-4.43,0-8-2.74-8-6.11V477.74c0-3.37,3.58-6.1,8-6.1s8,2.73,8,6.1v46.78C1510.12,527.89,1506.53,530.63,1502.11,530.63ZM870.16,459c-4.43,0-8-2.73-8-6.1V406.07c0-3.37,3.58-6.1,8-6.1s8,2.73,8,6.1v46.78C878.17,456.22,874.58,459,870.16,459Zm631.95-21.88c-4.43,0-8-2.73-8-6.1V389.83a10.49,10.49,0,0,0-.73-3.82c-1.26-3.23,1.15-6.63,5.39-7.59s8.7.88,10,4.11a19.85,19.85,0,0,1,1.4,7.3V431C1510.12,434.34,1506.53,437.07,1502.11,437.07Zm-54.19-60.59h-61.36c-4.42,0-8-2.73-8-6.11s3.59-6.1,8-6.1h61.36c4.43,0,8,2.73,8,6.1S1452.35,376.48,1447.92,376.48Zm-122.73,0h-61.36c-4.43,0-8-2.73-8-6.11s3.58-6.1,8-6.1h61.36c4.43,0,8,2.73,8,6.1S1329.62,376.48,1325.19,376.48Zm-122.73,0H1141.1c-4.43,0-8-2.73-8-6.11s3.58-6.1,8-6.1h61.36c4.43,0,8,2.73,8,6.1S1206.89,376.48,1202.46,376.48Zm-122.73,0h-61.37c-4.42,0-8-2.73-8-6.11s3.58-6.1,8-6.1h61.37c4.42,0,8,2.73,8,6.1S1084.15,376.48,1079.73,376.48Zm-122.73,0H895.69c-4.43,0-8-2.73-8-6.11s3.56-6.1,8-6.1H957c4.42,0,8,2.73,8,6.1S961.42,376.48,957,376.48Z" transform="translate(-276.59 -200.87)"/><path class="cls-5" d="M1024.42,505.92s42.36-49.35,44.9-49.35l52-.09,28.34,49.08-31.73,55a2.39,2.39,0,0,0,0,2.4l33.69,58.38a2.42,2.42,0,0,0,2.09,1.2H1217l30.27,52.43a2.4,2.4,0,0,0,2.09,1.2h67.4a2.39,2.39,0,0,0,2.08-1.2l30.28-52.43h62.47a2.41,2.41,0,0,0,2.08-1.2l33.7-58.38a2.39,2.39,0,0,0,0-2.4l-30.39-52.64,38.78-48.26a6,6,0,0,0-9.31-7.49L1407.17,501h-63a2.4,2.4,0,0,0-2.09,1.2l-30.27,52.44h-58.34l-30.28-52.44a2.4,2.4,0,0,0-2.09-1.2h-60.3L1130,447.71a6,6,0,0,0-5.28-3.19l-59.73.09-49.75,53.63a6,6,0,0,0-1,5.89,5.91,5.91,0,0,0,1.77,2.52A6,6,0,0,0,1024.42,505.92ZM1406,610.56H1350.4l-28.56-49.48,27.81-48.18H1406l28.18,48.83Zm-179.39,4.82,28.18-48.83h55.62L1339,616,1311.2,664.2h-56.38ZM1131,561.73l28.18-48.83h56.38l28.19,48.83-28.19,48.83h-56.38Z" transform="translate(-276.59 -200.87)"/><path class="cls-5" d="M1218.62,551.65a6,6,0,0,1,5.17-3,5.81,5.81,0,0,1,3,.83,6,6,0,0,1,2.15,8.16l-25.51,43.93a6,6,0,0,1-10.32-6Z" transform="translate(-276.59 -200.87)"/><path class="cls-5" d="M1388.22,594.6l25.17-43.66a6.06,6.06,0,0,1,5.19-3,6,6,0,0,1,5.15,9l-25.17,43.65a6,6,0,0,1-5.17,3,5.93,5.93,0,0,1-3-.8A6,6,0,0,1,1388.22,594.6Z" transform="translate(-276.59 -200.87)"/><path class="cls-5" d="M945,525.77V502.69a4.85,4.85,0,1,1,9.69,0v36.72c0,3.3-1.94,5-5,5-1.82,0-3.75-1.29-5.76-3.81l-19-24v22.95a4.85,4.85,0,1,1-9.69,0V502.82c0-2.78,1.74-5,4.78-5,2.26,0,3.56.84,5.82,3.69Z" transform="translate(-276.59 -200.87)"/><path class="cls-5" d="M993.15,502.69a5.19,5.19,0,0,1,10.35,0v36.85a5.19,5.19,0,0,1-10.35,0v-14H976.67v14a5.19,5.19,0,0,1-10.35,0V502.69a5.19,5.19,0,0,1,10.35,0v13.13h16.48Z" transform="translate(-276.59 -200.87)"/><path class="cls-5" d="M1030.1,542c5.24,1.19,8.18,5.18,8.18,10.48a11.89,11.89,0,0,1-4.18,9.61,15.72,15.72,0,0,1-10.67,3.62c-4.93,0-8.74-1.19-11.36-3.62a4.92,4.92,0,0,1-.93-6.61,4.59,4.59,0,0,1,6.36-.94,9.73,9.73,0,0,0,5.3,1.81c3.56,0,5.49-1.81,5.49-4.24q0-4.87-5.8-4.87c-3,0-5.18-1.56-5.18-4.62s2.12-4.61,4.87-4.61a4.19,4.19,0,0,0,4.43-4.43c0-2.06-1.25-3.68-4-3.68a8.79,8.79,0,0,0-4.43,1.12c-2.25,1.31-5,.94-6.3-1.25a4.73,4.73,0,0,1,1.31-6.3,16.94,16.94,0,0,1,10.29-2.93,14.52,14.52,0,0,1,9.48,3,10.08,10.08,0,0,1,3.62,8.18C1036.59,536.78,1034.53,540,1030.1,542Z" transform="translate(-276.59 -200.87)"/><rect class="cls-3" x="33.48" y="311.45" width="386.71" height="268.15" rx="16.19"/><rect class="cls-2" x="54.64" y="361.57" width="308.05" height="40.47" rx="17.41"/><rect class="cls-2" x="54.64" y="434.99" width="185.87" height="20.23" rx="6.76"/><rect class="cls-2" x="54.64" y="516.48" width="132.62" height="20.23" rx="5.71"/><rect class="cls-2" x="54.64" y="473.17" width="224.99" height="20.23" rx="7.44"/><path class="cls-6" d="M690.64,560.33a85.13,85.13,0,0,1-84.71-93.7,14.78,14.78,0,1,1,29.4,3,55.42,55.42,0,1,0,29.21-43.33,14.78,14.78,0,0,1-13.86-26.11,85,85,0,1,1,40,160.12Z" transform="translate(-276.59 -200.87)"/><path class="cls-6" d="M717.3,475.33a26.82,26.82,0,1,1-26.82-26.82A26.82,26.82,0,0,1,717.3,475.33Z" transform="translate(-276.59 -200.87)"/><rect class="cls-6" x="751.65" y="602.05" width="278.21" height="214.55" rx="17.68"/><path class="cls-3" d="M679.84,646.61H916.11a17.21,17.21,0,0,1,17.21,17.21V838.15a17.2,17.2,0,0,1-17.2,17.2H679.84a17.21,17.21,0,0,1-17.21-17.21V663.81a17.21,17.21,0,0,1,17.21-17.21Z"/><path class="cls-7" d="M970.08,890l-53.47-53.47H776.93a3.52,3.52,0,0,1,0-7H919.52L975.05,885a3.52,3.52,0,1,1-5,5Z" transform="translate(-276.59 -200.87)"/><path class="cls-7" d="M867.44,818.92H776.26a3.52,3.52,0,0,1,0-7h91.18a3.52,3.52,0,0,1,0,7Z" transform="translate(-276.59 -200.87)"/><path class="cls-7" d="M932.17,1105.37l55.31-1.43,47.45-50a3.52,3.52,0,1,0-5.11-4.85L984.38,1097,932,1098.33a3.52,3.52,0,1,0,.18,7Z" transform="translate(-276.59 -200.87)"/><path class="cls-8" d="M965.62,954.59a91.91,91.91,0,0,0,16.72,52.93l.13-.1A91.58,91.58,0,0,1,965.62,954.59Z" transform="translate(-276.59 -200.87)"/><path class="cls-8" d="M1071.36,863.21c2.63.38,5.23.84,7.81,1.45C1076.61,864.06,1074,863.59,1071.36,863.21Z" transform="translate(-276.59 -200.87)"/><path class="cls-8" d="M1028.35,1042c-.51-.17-1-.3-1.52-.47q3.69,1.32,7.51,2.34c-.34-.1-.67-.23-1-.32C1031.64,1043.05,1030,1042.54,1028.35,1042Z" transform="translate(-276.59 -200.87)"/><path class="cls-8" d="M1020.09,1038.68c-1.22-.55-2.47-1-3.66-1.63,2.6,1.31,5.26,2.51,8,3.58-.41-.16-.79-.37-1.2-.54C1022.16,1039.65,1021.13,1039.16,1020.09,1038.68Z" transform="translate(-276.59 -200.87)"/><path class="cls-8" d="M1092.1,868.7a91.82,91.82,0,0,1,8.87,4A93.38,93.38,0,0,0,1092.1,868.7Z" transform="translate(-276.59 -200.87)"/><path class="cls-9" d="M1122.32,954.59h28.19a92.39,92.39,0,0,0-49-81.58l-13.24,24.87A64.24,64.24,0,0,1,1122.32,954.59Z" transform="translate(-276.59 -200.87)"/><path class="cls-8" d="M1058.06,862.14a92.45,92.45,0,0,0-92.44,92.45C965.62,903.88,1007.35,862.14,1058.06,862.14Z" transform="translate(-276.59 -200.87)"/><path class="cls-8" d="M1082,865.39c2.57.69,5.11,1.5,7.61,2.41C1087.15,866.89,1084.62,866.09,1082,865.39Z" transform="translate(-276.59 -200.87)"/><path class="cls-8" d="M1058.06,862.14a93.17,93.17,0,0,1,10.58.65A94.65,94.65,0,0,0,1058.06,862.14Z" transform="translate(-276.59 -200.87)"/><path class="cls-8" d="M1015,1036.37a90,90,0,0,1-9-5.42A91.57,91.57,0,0,0,1015,1036.37Z" transform="translate(-276.59 -200.87)"/><path class="cls-8" d="M1005.45,1030.55a93.33,93.33,0,0,1-7.41-5.74A92.05,92.05,0,0,0,1005.45,1030.55Z" transform="translate(-276.59 -200.87)"/><path class="cls-8" d="M1058.06,1047a92.45,92.45,0,0,0,92.45-92.44C1150.51,1005.3,1108.78,1047,1058.06,1047Z" transform="translate(-276.59 -200.87)"/><path class="cls-8" d="M1047.54,1046.39a93.73,93.73,0,0,0,10.52.64,91.22,91.22,0,0,1-10.37-.63Z" transform="translate(-276.59 -200.87)"/><path class="cls-8" d="M1037.71,1044.67c-.2-.05-.41-.07-.61-.12,2.55.6,5.14,1.06,7.77,1.43l-.66-.12C1042,1045.53,1039.85,1045.15,1037.71,1044.67Z" transform="translate(-276.59 -200.87)"/><path class="cls-8" d="M988.31,1015.13c-1.7-2-3.32-4-4.86-6.13C985,1011.12,986.6,1013.16,988.31,1015.13Z" transform="translate(-276.59 -200.87)"/><path class="cls-8" d="M995.71,1022.69q-2.64-2.4-5.09-5Q993.07,1020.28,995.71,1022.69Z" transform="translate(-276.59 -200.87)"/><path class="cls-10" d="M1089.64,867.8c.82.29,1.65.58,2.46.9C1091.29,868.37,1090.46,868.09,1089.64,867.8Z" transform="translate(-276.59 -200.87)"/><path class="cls-10" d="M1079.17,864.66c1,.22,1.91.48,2.86.73C1081.08,865.14,1080.13,864.88,1079.17,864.66Z" transform="translate(-276.59 -200.87)"/><path class="cls-10" d="M1101.52,873c-.18-.09-.37-.15-.55-.25.18.1.37.17.54.27Z" transform="translate(-276.59 -200.87)"/><path class="cls-10" d="M1068.64,862.79c.92.11,1.81.29,2.72.42C1070.45,863.08,1069.56,862.9,1068.64,862.79Z" transform="translate(-276.59 -200.87)"/><path class="cls-10" d="M1028.35,1042c1.64.56,3.29,1.07,5,1.55Q1030.82,1042.82,1028.35,1042Z" transform="translate(-276.59 -200.87)"/><path class="cls-10" d="M1058.06,1047a91.64,91.64,0,0,1-10.37-.63A91.22,91.22,0,0,0,1058.06,1047Z" transform="translate(-276.59 -200.87)"/><path class="cls-5" d="M1005.43,991.38c-38.58-54.3,24.16-125.23,82.84-93.5L1101.51,873c-84.39-45.51-174.72,56.68-119,134.41Z" transform="translate(-276.59 -200.87)"/><path class="cls-10" d="M1020.09,1038.68c1,.48,2.07,1,3.14,1.41C1022.16,1039.66,1021.13,1039.15,1020.09,1038.68Z" transform="translate(-276.59 -200.87)"/><path class="cls-10" d="M1037.71,1044.67c2.14.48,4.31.86,6.5,1.19C1042,1045.53,1039.85,1045.15,1037.71,1044.67Z" transform="translate(-276.59 -200.87)"/><path class="cls-11" d="M990.62,1017.67c-.78-.83-1.56-1.67-2.31-2.54C989.07,1016,989.84,1016.84,990.62,1017.67Z" transform="translate(-276.59 -200.87)"/><path class="cls-11" d="M998,1024.81c-.8-.68-1.56-1.41-2.33-2.12C996.48,1023.4,997.24,1024.13,998,1024.81Z" transform="translate(-276.59 -200.87)"/><path class="cls-11" d="M1006,1031c-.19-.12-.36-.27-.54-.4C1005.63,1030.68,1005.8,1030.83,1006,1031Z" transform="translate(-276.59 -200.87)"/><path class="cls-11" d="M1047.54,1046.39c-.9-.1-1.78-.28-2.67-.41C1045.76,1046.11,1046.64,1046.29,1047.54,1046.39Z" transform="translate(-276.59 -200.87)"/><path class="cls-11" d="M1016.43,1037.05c-.46-.24-.94-.44-1.4-.68C1015.49,1036.61,1016,1036.81,1016.43,1037.05Z" transform="translate(-276.59 -200.87)"/><path class="cls-11" d="M1037.1,1044.55c-.92-.21-1.84-.46-2.76-.7C1035.26,1044.09,1036.18,1044.34,1037.1,1044.55Z" transform="translate(-276.59 -200.87)"/><path class="cls-11" d="M1026.83,1041.51c-.8-.29-1.61-.57-2.4-.88C1025.22,1040.94,1026,1041.22,1026.83,1041.51Z" transform="translate(-276.59 -200.87)"/><path class="cls-11" d="M982.29,1007.55c.36.51.79,1,1.16,1.45-.37-.5-.76-1-1.11-1.48Z" transform="translate(-276.59 -200.87)"/><path class="cls-11" d="M982.47,1007.42l-.13.1c.35.5.74,1,1.11,1.48,1.54,2.12,3.16,4.17,4.86,6.13.75.87,1.53,1.71,2.31,2.54q2.45,2.63,5.09,5c.77.71,1.53,1.44,2.33,2.12a93.33,93.33,0,0,0,7.41,5.74c.18.13.35.28.54.4a90,90,0,0,0,9,5.42c.46.24.94.44,1.4.68,1.19.6,2.44,1.08,3.66,1.63A93.58,93.58,0,0,1,982.47,1007.42Z" transform="translate(-276.59 -200.87)"/><path class="cls-11" d="M1044.21,1045.86l.66.12c.89.13,1.77.31,2.67.41h.15C1046.52,1046.27,1045.37,1046,1044.21,1045.86Z" transform="translate(-276.59 -200.87)"/><path class="cls-11" d="M1023.23,1040.09c.41.17.79.38,1.2.54.79.31,1.6.59,2.4.88.5.17,1,.3,1.52.47C1026.62,1041.38,1024.91,1040.78,1023.23,1040.09Z" transform="translate(-276.59 -200.87)"/><path class="cls-11" d="M1033.32,1043.53c.35.09.68.22,1,.32.92.24,1.84.49,2.76.7.2,0,.41.07.61.12C1036.23,1044.33,1034.77,1043.94,1033.32,1043.53Z" transform="translate(-276.59 -200.87)"/><path class="cls-12" d="M1150.51,954.59h-28.19c1.28,62-83.22,87.62-116.89,36.79l-23,16C1032.89,1081,1151,1043.7,1150.51,954.59Z" transform="translate(-276.59 -200.87)"/><path class="cls-6" d="M2030.56,376.2v157H1571.05a31.34,31.34,0,0,1-31.35-31.35v-186h430.55A60.31,60.31,0,0,1,2030.56,376.2Z" transform="translate(-276.59 -200.87)"/><rect class="cls-3" x="1279.6" width="587.05" height="313.48" rx="31.35"/><path class="cls-2" d="M2143.25,232.22v46.34H1556.19V232.22a31.34,31.34,0,0,1,31.35-31.35H2111.9A31.34,31.34,0,0,1,2143.25,232.22Z" transform="translate(-276.59 -200.87)"/><circle class="cls-13" cx="1334.18" cy="41.16" r="25.1"/><path class="cls-3" d="M1707.14,242a25.1,25.1,0,1,1-25.1-25.1A25.1,25.1,0,0,1,1707.14,242Z" transform="translate(-276.59 -200.87)"/><path class="cls-3" d="M1778.4,242a25.1,25.1,0,1,1-25.1-25.1A25.1,25.1,0,0,1,1778.4,242Z" transform="translate(-276.59 -200.87)"/><rect class="cls-14" x="1324.52" y="123.83" width="119.67" height="119.67" rx="14.43"/><rect class="cls-14" x="1508.74" y="123.83" width="119.67" height="119.67" rx="14.43"/><rect class="cls-14" x="1692.96" y="123.83" width="119.67" height="119.67" rx="14.43"/><path class="cls-15" d="M1574.37,1025.59l60.8-26.72c5,6.55,75.25,25.39,105.51,169,6.31,30-44.36,111.51-75.65,136.37s-48.29-29.43-48.29-29.43L1660.66,1173Z" transform="translate(-276.59 -200.87)"/><path d="M1518.61,1842.37c-30.37,42.73-105,16.51-102.5,74.3,113.44-.74,160.58,0,160.58,0-.15-13.27-2.39-44.78-5-57.11Z" transform="translate(-276.59 -200.87)"/><path d="M1694.6,1842.37c-30.37,42.73-105,16.51-102.5,74.3,113.44-.74,160.58,0,160.58,0-.15-13.27-2.39-44.78-5-57.11Z" transform="translate(-276.59 -200.87)"/><polygon class="cls-16" points="1304.52 798.83 1241.88 793.77 1235.83 732.12 1291.04 702.7 1304.52 798.83"/><path class="cls-16" d="M1516,806.2c-33.26,0-58.68,30.51-64.62,63.22-10.76,59.19,24.23,97.37,33.45,100.56,17.42,6,55.18-12.88,55.18-12.88s43.42-39.55,43.42-64.2C1583.41,859.65,1549.23,806.2,1516,806.2Z" transform="translate(-276.59 -200.87)"/><path class="cls-7" d="M1618.27,862.93c15.6-23.95,4.3-39.63-16.89-47.73s-23.65-18.54-32.39-32.53c-8.3-13.26-46.72-27.4-64.35-6.79-26.29,30.72-31.67,5.36-54.62,28.33-20.71,20.72-15.7,45.79-6.72,57.37,8.73,11.26,29.6-8.89,28.16,5.92-1.13,11.54,15.86,11.84,21.39,23.65,4.2,8.94,11.58,12.66,10.42,18.3-2.25,11-10.68,27.11,11.61,42.58,12.71,8.82,19.94-4,34.14,4.44,27,16,36.48-3.25,51.21-19.12s33.62-15,18.32-41.61C1618,894.73,1606.72,880.68,1618.27,862.93Z" transform="translate(-276.59 -200.87)"/><path class="cls-16" d="M1487.69,885.11c-5.88,8.51-5,19.31,2,24.13s17.38,1.82,23.27-6.69,5-19.31-2-24.13S1493.58,876.6,1487.69,885.11Z" transform="translate(-276.59 -200.87)"/><path class="cls-17" d="M1498.62,904.38a2.17,2.17,0,0,1-1-.4c-4.24-3-5.93-7.42-4.51-11.72a10.89,10.89,0,0,1,10.16-7.49,2.26,2.26,0,1,1-.06,4.52,6.46,6.46,0,0,0-5.8,4.39c-.79,2.39.22,4.75,2.85,6.63a2.26,2.26,0,0,1-1.68,4.07Z" transform="translate(-276.59 -200.87)"/><path class="cls-18" d="M1650.18,1365.71s29.33,146.64,48,250.61c19.39,32.49,58.62,196.08,58.3,247.18l-84.73-6.07s-51.51-151.48-64.22-199.78c-15.83-60.17-51.94-144.44-67.77-265.48l-3.82-33.85Z" transform="translate(-276.59 -200.87)"/><path class="cls-7" d="M1473.27,1404.08l104.61,4.22L1566.19,1623c11.63,35.31,25.69,193.85,14,243l-87.61-6.26S1444.89,1548.34,1473.27,1404.08Z" transform="translate(-276.59 -200.87)"/><path class="cls-4" d="M1476.79,987.53s144.12-2.95,162.15,14c67.13,63.19,16.48,262.25,80.92,564-19.27-6.7-85.19-53.83-166-18.44-53.78,23.56-90.6,33.13-138.32,16.14-21.86-188,39.55-439,39.55-439Z" transform="translate(-276.59 -200.87)"/><path class="cls-16" d="M1205.7,1045.93c9.32.57,20.84-4,24.43,4.32l18.38-9,1.12-11.08c-15.8-25.32-54.31-32.5-58.12-32.84-9.91-.87-14.51-1.89-15.28-.56s-3.2,10.14,11.17,11.87c18,2.16,6.06,16.58-30.53,2.86-9.17-3.44-26.41,1-20.17,7.72C1143.57,1026.63,1163.32,1043.35,1205.7,1045.93Z" transform="translate(-276.59 -200.87)"/><path class="cls-4" d="M1223.1,1050.34c4,27.8,48.22,154.57,85.08,170.78,21.12-15.72,27.16-51.24,21.12-76.16-11.3-46.68-79.67-114.76-79.67-114.76Z" transform="translate(-276.59 -200.87)"/><path class="cls-4" d="M1477.58,987.68s40.77,16.61,19.44,69.94-128,191.44-190.81,162.52C1268.81,1147.88,1445.83,985.46,1477.58,987.68Z" transform="translate(-276.59 -200.87)"/><path class="cls-4" d="M1499.23,988.55c11-8.61,45.76-23.5,85.41-19.49,4.6,8.61,4.37,22.42,4.37,22.42Z" transform="translate(-276.59 -200.87)"/><path class="cls-16" d="M860.32,883c-6.83,8.14-12.11,17.84-26.19,17.59,0,0-12.06,31.74-24.7,56.55,0,0-14.22-45.06-14.21-45.08,6.21-9.51,16.17-28.27,19.5-40,.86-3,1.57-6.12,2.4-9.18,1.87-7.49,3.16-15.3,11-22,12.79-11,27.27-32,30.23-32.62,5.16-1.24,3.33,14.1-4.63,21.75-12.7,12.21-8.28,17.58-8.28,17.58s13.39,3.18,15.85,9.46C862.36,859.94,868.31,873.49,860.32,883Z" transform="translate(-276.59 -200.87)"/><path class="cls-16" d="M646,1581.22l-71.74,2.67S560.83,1640.2,557,1688.53c-3.13,39.79,10.37,105.15,10.35,157,0,9.58-6.7,24.67-7.83,31.92-4.1,26.19,71.7,12.78,71.7,12.78-4.71-2.39-24.84-29.13-25.5-38.32-2.16-30.24,10.38-101.74,22.69-163.51C639.37,1633.54,646,1581.22,646,1581.22Z" transform="translate(-276.59 -200.87)"/><path class="cls-16" d="M441.58,1550.94s-14.57,89-18.37,137.33c-3.13,39.78,5.81,98.33,5.78,150.14,0,9.58-6.69,24.67-7.83,31.92-4.09,26.19,11.3,7.08,18.57,14.34s17.68,2.77,17.68,2.77l39.21.81s-1.45-2.11-9.83-5.29c-3.92-2.17-19.17-29-19.42-38.17-3-108.71,91.61-283.93,91.61-283.93Z" transform="translate(-276.59 -200.87)"/><path class="cls-19" d="M464.13,1883.68c-14.9,1.35-24.74-8.4-36.55-16,.53,8.89-.08,12.48-.07,21.37a52.19,52.19,0,0,1,12.73,12.23,7.48,7.48,0,0,0,5.45,3l34,2.65S468.89,1883.25,464.13,1883.68Z" transform="translate(-276.59 -200.87)"/><path class="cls-13" d="M486,1882.4s-.87,1.52-3.6.67c-8.19-2.55-18.34-10.77-29.21-18.43-8.22-5.79-19.18-14.79-26.29-13.93-5.12.62-13.47,13.12-12.12,25.07.57,5,2.07,8.86,7,14.76s8,25.57,8,25.57l5.81-.19s0-34.71,18.31-26.75c13.21,5.75,16.17,20.29,27.91,17.46,9.58-3.09,21.06-9.11,19.13-16C499.81,1886.7,495.93,1885.44,486,1882.4Z" transform="translate(-276.59 -200.87)"/><path class="cls-19" d="M602.51,1890.76c-14.89,1.35-24.73-8.4-36.55-16,.54,8.9-.08,12.49-.06,21.38a52.2,52.2,0,0,1,12.73,12.23,7.43,7.43,0,0,0,5.44,3l37,2.2S607.28,1890.32,602.51,1890.76Z" transform="translate(-276.59 -200.87)"/><path class="cls-13" d="M638.85,1893A65.86,65.86,0,0,1,631,1890c-9.1,3-26.63-9.29-39.42-18.29-8.21-5.79-19.49-15-26.6-14.13-5.12.62-12.51,17.25-13.62,24.83-.74,5,1.09,10.22,3.93,17.19,4.25,10.47,9.31,23.9,9.31,23.9l5.82-.18s0-34.72,18.3-26.76c13.21,5.75,14.93,16.89,31.47,17.13C637.76,1914,665.6,1901.87,638.85,1893Z" transform="translate(-276.59 -200.87)"/><path class="cls-16" d="M577.56,847.32c-9.51-19-23.28-26.33-23.28-26.33l-2.42-.78L451.16,842.3s38.33,77.31,40.28,79.26S552,979.46,552,979.46s29.15,7.27,40.15-17.28C612.18,917.46,587.07,866.34,577.56,847.32Z" transform="translate(-276.59 -200.87)"/><path class="cls-15" d="M492.31,1080.46l-67.23,9.71c-2.32,5.82-31.44,106.2-24.46,128.31s55.36,72,83.28,83.66S513,1270.73,513,1270.73l-53-65Z" transform="translate(-276.59 -200.87)"/><path class="cls-4" d="M709,1335C695.81,1253.3,674.11,1214,674.11,1214c-6.17-42-9.63-117.3-21.69-143.37l-77.34-75.39-116.81,13s28.28,252.44,28.74,252.8c-41.16,71.22-58,143.09-73.08,185.82C391.21,1511.45,338,1573.81,338,1573.81c51.9-20.76,123,47.2,182.28,54.61s103.5-3.11,127.15-6.64c37.48-5.59,62.78,21.8,62.78,21.8C713.19,1638.53,728.45,1455.67,709,1335Z" transform="translate(-276.59 -200.87)"/><path class="cls-4" d="M801.09,878.87l-79,130.66s-85.8-15.39-110.24-17.14c-33.39-2.38-40.17,5-40.17,5s6.75,98.73,60.31,101.32c-3.86-8.34,100.5-13.25,130.89-33S838,921.18,837.51,919.26C805.87,899,801.09,878.87,801.09,878.87Z" transform="translate(-276.59 -200.87)"/><path class="cls-20" d="M538.19,799c-28.8,5.38-68.43-26.6-108.59,6.72C377,849.37,419.06,903,381.17,935.06,348.7,962.55,227,1014.62,302,1078.94c-29.1,9.19-46.71,88.82,36,88-6.89,23.74,39.82,76.57,113.33,16.85,39.05,58.19,105.66-26,104.13-81.93-.53-19.27-7.66-43.64-16.08-65.08,55.9,29.86,39.82-91.12,23.54-148.63C579.18,886,625.88,782.62,538.19,799Z" transform="translate(-276.59 -200.87)"/><path class="cls-4" d="M453,366a22.77,22.77,0,1,1,9.72,30.7A22.76,22.76,0,0,1,453,366Z" transform="translate(-276.59 -200.87)"/><path class="cls-4" d="M2500.58,1258.27a23.06,23.06,0,1,1,15-29,23.08,23.08,0,0,1-15,29Zm4.11,13a36.68,36.68,0,1,0-46-23.89,36.67,36.67,0,0,0,46,23.89Z" transform="translate(-276.59 -200.87)"/><path class="cls-15" d="M2593.62,1000.4c-29.24,10-124.77,181.7-124.77,181.7l73.62,4.83,78.85-79.91Z" transform="translate(-276.59 -200.87)"/><path d="M2692,1849.93c-27.24,36.33-94.11,14-91.9,63.17,101.7-.63,144,0,144,0-.14-11.28-2.15-38.07-4.49-48.55Z" transform="translate(-276.59 -200.87)"/><path d="M2844.2,1850.89c-27.24,36.32-94.11,14-91.9,63.16,101.7-.63,144,0,144,0-.14-11.28-2.15-38.07-4.49-48.55Z" transform="translate(-276.59 -200.87)"/><path class="cls-18" d="M2633.55,1293.86s-16.33,234-9.62,285.78,41.68,118.43,39,289.63c33.16,8,81.19,0,81.19,0s7.12-193.58-27.93-280c14.25-84,60-276.35,60-276.35Z" transform="translate(-276.59 -200.87)"/><path class="cls-7" d="M2734.41,1302.06s1.52,258.36,17.84,307.93,48,84.94,77.59,253.6c34.07,1.65,83.13,2.35,83.13,2.35s-17.45-216.76-70.51-265.42c-1.8-85.17,20.09-300.1,20.09-300.1Z" transform="translate(-276.59 -200.87)"/><polygon class="cls-1" points="2375.97 764.21 2420.01 749.7 2466.32 751.87 2428.83 813.58 2375.97 764.21"/><path class="cls-16" d="M2668.33,993.83a61,61,0,0,0,68.34-9.52l-8.81-69.52-64.56,9.53Z" transform="translate(-276.59 -200.87)"/><path class="cls-1" d="M2760,974.2h0L2745.44,972l-2.53-19.24-30.18,38.18L2702.67,995l-10.79-1.21-39.31-28.69,2.72,19.22-11.22,5.05h0l-40.86,16.59,48.9,236.66,1.51,78.63c60.59,5.83,124.72,1.41,184.66-21.3l-20.5-80L2809,979.73Z" transform="translate(-276.59 -200.87)"/><polygon class="cls-13" points="2418.09 820.07 2425.26 1006.41 2443.97 1024.25 2460.53 1005.76 2432.35 818.96 2418.09 820.07"/><polygon class="cls-13" points="2404.41 798.69 2420.94 793.16 2440.18 795.04 2432.4 819.32 2418.11 820.7 2404.41 798.69"/><path class="cls-4" d="M2649.79,974.06l25,208.61-2.77,288.4s-7.92,20.19-41.94,0l-37-470.61Z" transform="translate(-276.59 -200.87)"/><polygon class="cls-21" points="2373.98 770.88 2400.26 996.25 2347.45 825.02 2373.98 770.88"/><path class="cls-4" d="M2744.39,954.66l42.88,518.82s96.95,21.61,125.7-2.41l-45.92-220.87-60.71-296.06Z" transform="translate(-276.59 -200.87)"/><polygon class="cls-21" points="2466.98 753.15 2486.51 980.25 2505.87 797.58 2466.98 753.15"/><ellipse class="cls-16" cx="2673.84" cy="859.08" rx="69.17" ry="88.07" transform="translate(-285.73 -171.89) rotate(-0.62)"/><path d="M2626.51,875.55a7.16,7.16,0,1,1,2.7-9.76A7.15,7.15,0,0,1,2626.51,875.55Z" transform="translate(-276.59 -200.87)"/><path d="M2679.82,862.76a7.19,7.19,0,1,1-5-8.85A7.2,7.2,0,0,1,2679.82,862.76Z" transform="translate(-276.59 -200.87)"/><path class="cls-17" d="M2641.58,864.4c-2.39,12.53-5.61,27.93-5.61,27.93s7.81,9.21,21.91,3.92c-6.9-.15-14.32-1.87-15-10.73S2641.58,864.4,2641.58,864.4Z" transform="translate(-276.59 -200.87)"/><path class="cls-7" d="M2686.41,849a3.31,3.31,0,0,1-4.1-.11c-.28-.24-7.23-5.83-13.19-1.43a3.31,3.31,0,0,1-3.94-5.33c8.14-6,17.54-1.54,21.38,1.67a3.32,3.32,0,0,1,.42,4.67A3.17,3.17,0,0,1,2686.41,849Z" transform="translate(-276.59 -200.87)"/><path class="cls-7" d="M2609.15,865.25a3.34,3.34,0,0,0,3.65-1.89c.15-.33,4-8.39,11.25-7a3.32,3.32,0,0,0,1.23-6.52c-9.94-1.87-16.46,6.25-18.52,10.8a3.31,3.31,0,0,0,1.65,4.39A3.36,3.36,0,0,0,2609.15,865.25Z" transform="translate(-276.59 -200.87)"/><path class="cls-7" d="M2736.29,861.86c-5.85-16.66-19.12-8-28.38-29.46S2690.7,795,2671.13,806s-26.3,7.77-36.45,5.79c-30.52-5.95-30,43.6-30,43.6S2576,822,2592,796.57c17.71-28.24,28.1-14,45.66-35.61s53-23.63,64.36-12.25c12,12,16.8,21.87,39.86,25.12s38.71,16.64,27.84,43.89,24.42,31.86.62,61.82c-9.23,11.62-29.09,20.57-33.85,17.45C2730.07,892.81,2740.06,872.6,2736.29,861.86Z" transform="translate(-276.59 -200.87)"/><path class="cls-7" d="M2608,885.79s8.79,22.22,15.55,28.05c-.71-11.18,17.12-4.85,24.77-7.14,18.5-5.52,41.8-25.12,56.68-.33,24.36-2.83,25.12-56.77,25.12-56.77,24.13,50.47,2.43,94.38-55.11,110C2637.11,969.91,2607.82,925.73,2608,885.79Z" transform="translate(-276.59 -200.87)"/><path class="cls-16" d="M2726.36,851.91c-5.93,10.23-3.94,22.46,4.44,27.31s20,.48,25.9-9.76,3.93-22.47-4.45-27.31S2732.28,841.67,2726.36,851.91Z" transform="translate(-276.59 -200.87)"/><path class="cls-17" d="M2740.59,872.86a2.67,2.67,0,0,1-1.14-.36c-5.11-3.07-7.43-7.91-6.22-13a12.47,12.47,0,0,1,10.9-9.47,2.59,2.59,0,0,1,.34,5.16,7.39,7.39,0,0,0-6.21,5.53c-.68,2.8.69,5.39,3.86,7.3a2.58,2.58,0,0,1-1.53,4.79Z" transform="translate(-276.59 -200.87)"/><path class="cls-17" d="M2663.27,922.06a25.43,25.43,0,0,1-4.58,1.62c-11.68,2.94-21.88-3.25-22.3-3.52a2.81,2.81,0,1,1,3-4.79h0c.09,0,8.69,5.21,18,2.83,6.09-1.54,11.28-6,15.42-13.13a2.82,2.82,0,0,1,4.88,2.83C2673.75,914.68,2668.92,919.43,2663.27,922.06Z" transform="translate(-276.59 -200.87)"/><polygon class="cls-4" points="2420.94 793.16 2456.93 818.58 2476.16 764.66 2466.32 751.87 2420.94 793.16"/><polygon class="cls-4" points="2420.94 793.16 2398.79 822.7 2369.92 779.17 2375.97 764.21 2420.94 793.16"/><g id="с"><path id="с-2" data-name="с" class="cls-22" d="M1944.71,1437.29h32.07a0,0,0,0,1,0,0v265.17a15.51,15.51,0,0,1-15.51,15.51h-1.06a15.51,15.51,0,0,1-15.51-15.51V1437.29A0,0,0,0,1,1944.71,1437.29Z"/><path id="с-3" data-name="с" class="cls-22" d="M2057.23,1437.29h32.07a0,0,0,0,1,0,0v265.17a15.51,15.51,0,0,1-15.51,15.51h-1.06a15.51,15.51,0,0,1-15.51-15.51V1437.29a0,0,0,0,1,0,0Z"/><path id="с-4" data-name="с" class="cls-22" d="M2513.54,1903.83c0,8.28-7.18,15-16,15h0c-8.85,0-16-6.72-16-15V1638.15h32.07Z" transform="translate(-276.59 -200.87)"/><path id="с-5" data-name="с" class="cls-22" d="M2317.39,1437.29h32.07a0,0,0,0,1,0,0v265.17A15.51,15.51,0,0,1,2334,1718h-1.06a15.51,15.51,0,0,1-15.51-15.51V1437.29A0,0,0,0,1,2317.39,1437.29Z"/><path id="с-6" data-name="с" class="cls-1" d="M2432.6,1216.5v338.1a7,7,0,0,1-7,7H2216a38.3,38.3,0,0,0-38.3,38.3h0a38.29,38.29,0,0,0,38.3,38.29h254.88a38.29,38.29,0,0,0,38.3-38.29V1216.5a38.3,38.3,0,0,0-38.3-38.3h0A38.29,38.29,0,0,0,2432.6,1216.5Z" transform="translate(-276.59 -200.87)"/><rect id="с-7" data-name="с" class="cls-1" x="2194.3" y="977.34" width="165.74" height="389.57"/><path id="с-8" data-name="с" class="cls-22" d="M2598.34,1216.5v338.1a7,7,0,0,1-7,7H2381.74a38.3,38.3,0,0,0-38.29,38.3h0a38.29,38.29,0,0,0,38.29,38.29h254.89a38.29,38.29,0,0,0,38.3-38.29V1216.5a38.3,38.3,0,0,0-38.3-38.3h0A38.29,38.29,0,0,0,2598.34,1216.5Z" transform="translate(-276.59 -200.87)"/></g><g id="c"><path class="cls-15" d="M2336.85,1163.92c-42.24,12.84-63.26,101.76-81.25,194.84-24.3,31.9-50.35,49.42-88.44,87,25.81,5.84,53.12-1,53.12-1s70.17.6,100.61-65.74c7-15.18,9.34-45.73,13.29-59.31C2335.91,1277.16,2336.85,1163.92,2336.85,1163.92Z" transform="translate(-276.59 -200.87)"/><path class="cls-16" d="M2089.76,1873l-38.05,9.64-15.54-33.89c1.62-1.19,4.11-23.72,5.64-40.86l61.41,8.47C2100.21,1833.63,2095.13,1856.25,2089.76,1873Z" transform="translate(-276.59 -200.87)"/><path class="cls-18" d="M2022.62,1893s-13.16-22.12-29.83-23.51c0,0-31.46,1.8-42.49,15-3.47,4.16-2.14,13-.76,18.7.85,3.54,3.86,7.39,13.15,10.32,13.74,4.32,32.26,7,66.38-1.88,40.94-10.61,47.47-6.24,62.6-11.12,15.68-5,10.64-24.21,6.36-42.88C2098,1857.61,2086.62,1880.45,2022.62,1893Z" transform="translate(-276.59 -200.87)"/><path class="cls-7" d="M2035.14,1845.41A159,159,0,0,1,1993,1862c-13.36,3.07-49,10-43.25,33.73.85,3.55,3.86,7.39,13.15,10.32,13.74,4.32,32.26,7,66.38-1.88,40.94-10.61,47.47-6.24,62.6-11.12,15.68-5,8.44-26.8,4.17-45.47h0c-.39,4.74-2.58,17.17-31,28.31C2056.51,1879.17,2063.45,1841.73,2035.14,1845.41Z" transform="translate(-276.59 -200.87)"/><path class="cls-23" d="M2040.46,1874a3.24,3.24,0,0,1-2.92-2.45c-2.89-11.62-14.9-12.44-15.41-12.47a3.23,3.23,0,0,1,.33-6.45c6,.28,18.1,4.3,21.35,17.36a3.23,3.23,0,0,1-2.35,3.92A3.42,3.42,0,0,1,2040.46,1874Z" transform="translate(-276.59 -200.87)"/><path class="cls-23" d="M2025.46,1880a3.22,3.22,0,0,1-2.92-2.44c-2.89-11.62-14.9-12.44-15.41-12.48a3.23,3.23,0,0,1,.33-6.45c6,.28,18.1,4.3,21.35,17.37a3.23,3.23,0,0,1-2.36,3.91A3.36,3.36,0,0,1,2025.46,1880Z" transform="translate(-276.59 -200.87)"/><path class="cls-16" d="M2238.38,1887.3l-37.28,12.3-17.88-32.72c1.53-1.3,6.88-25.09,7.2-42.31l57.4,5.28C2246,1847.32,2242.56,1870.25,2238.38,1887.3Z" transform="translate(-276.59 -200.87)"/><path class="cls-18" d="M2300.24,1463c-85,15.52-205.67,70.57-217.58,83.09-24.59,25.87-36.63,114.83-48.23,273.29l74.37,5c27.45-123.78,53.28-177.75,57.5-228,0,0,65.17,4.5,163.24-33.34,48.34-18.66,98.72-40.42,84.22-84.1C2402.21,1444.09,2381.27,1448.2,2300.24,1463Z" transform="translate(-276.59 -200.87)"/><path class="cls-7" d="M2395.29,1470.4c-70.6,7.3-164.78,88.09-176.68,100.61-24.6,25.87-27.69,114.2-39.29,272.65l74,6.83c12-82.09,47-176.15,46.91-236.42,0,0,66.25-14.36,168.8-37.43,56.1-12.62,72.94-21.31,83.67-57.94,3.65-12.47,8.6-41.34,3-47.79C2531,1442.4,2462.12,1463.5,2395.29,1470.4Z" transform="translate(-276.59 -200.87)"/><path class="cls-18" d="M2172.81,1912s-14.68-21.14-31.41-21.36c0,0-31.25,4-41.33,18-3.16,4.38-1.21,13.13.56,18.7,1.1,3.48,4.37,7.1,13.85,9.37,14,3.34,32.66,4.68,66.08-6.55,40.09-13.46,46.91-9.56,61.66-15.49,15.29-6.14,8.91-24.91,3.33-43.22C2245.55,1871.4,2235.78,1895,2172.81,1912Z" transform="translate(-276.59 -200.87)"/><path class="cls-7" d="M2182,1863.65a159.52,159.52,0,0,1-40.89,19.48c-13.12,4-48.17,13.4-40.78,36.69,1.11,3.47,4.37,7.1,13.85,9.36,14,3.35,32.67,4.68,66.08-6.54,40.09-13.47,46.92-9.57,61.66-15.49,15.29-6.15,6.54-27.34,1-45.66h0c-.05,4.76-1.36,17.31-29,30.42C2205.65,1895.83,2209.94,1858,2182,1863.65Z" transform="translate(-276.59 -200.87)"/><path class="cls-23" d="M2195.53,1893.06a3.22,3.22,0,0,1-2.92-2.44c-2.89-11.62-14.9-12.44-15.41-12.48a3.23,3.23,0,0,1,.33-6.45c6,.28,18.1,4.3,21.35,17.37a3.23,3.23,0,0,1-2.36,3.91A3.05,3.05,0,0,1,2195.53,1893.06Z" transform="translate(-276.59 -200.87)"/><path class="cls-23" d="M2180.52,1899.08a3.25,3.25,0,0,1-2.92-2.45c-2.89-11.62-14.89-12.44-15.4-12.47a3.23,3.23,0,0,1,.33-6.46c6,.29,18.09,4.3,21.34,17.37a3.24,3.24,0,0,1-2.35,3.92A3.42,3.42,0,0,1,2180.52,1899.08Z" transform="translate(-276.59 -200.87)"/><polygon id="v-2" class="cls-16" points="2165.32 891.89 2165.28 891.89 2137.11 891.99 2130.73 958.53 2163.62 975.89 2198.68 958.72 2193.02 891.99 2165.32 891.89"/><path class="cls-7" d="M2444.59,1083.54c24.79,7,43.06-23.23,43.06-23.23,15.87-.13,15.68-15.94,15.68-15.94,7.7-1.1,18.71-7.45,17.76-21.95-.81-12.28-12.53-13.54-11.85-27.67.55-11.34,12.83-37.4-22.41-45.09,0,0,2.37-20.85-18.22-29.15-25.25-10.18-34.19,4.55-46.12,5.58-13.32,1.14-39-15-47.3,14.15,0,0-18.38-2.44-28.89,9.57-9.79,11.19-7.67,27.78-3.32,34.44,0,0-15.46,2.7-21,16.08-3.72,9-2,21.6,6.4,28.9a27.43,27.43,0,0,0,10.88,5.88c5.85,1.91,3.71,18,8.51,22a122.78,122.78,0,0,0,25.29,15.52Z" transform="translate(-276.59 -200.87)"/><path class="cls-16" d="M2490.78,1044.27c-1.62,46.64-38.16,86.84-74.79,85.56s-59.48-43.53-57.86-90.17,32.64-83.41,69.26-82.14S2492.4,997.64,2490.78,1044.27Z" transform="translate(-276.59 -200.87)"/><path d="M2379.46,1056.62a6.38,6.38,0,1,1-4.51-7.8A6.38,6.38,0,0,1,2379.46,1056.62Z" transform="translate(-276.59 -200.87)"/><path d="M2432.15,1054.68a6.9,6.9,0,1,1-4.88-8.45A6.89,6.89,0,0,1,2432.15,1054.68Z" transform="translate(-276.59 -200.87)"/><path class="cls-17" d="M2399.83,1056.38c-5.81,9.32-13.17,20.68-13.17,20.68s3.42,9.81,16.37,9.93c-5.48-2.26-10.91-5.94-8.68-13.25S2399.83,1056.38,2399.83,1056.38Z" transform="translate(-276.59 -200.87)"/><path class="cls-7" d="M2438.27,1041.57a3.84,3.84,0,0,0,.67-.34,3.17,3.17,0,0,0,.91-4.4c-2.63-4-10-10.74-19.15-7.5a3.18,3.18,0,1,0,2.13,6c6.76-2.4,11.66,4.91,11.7,5A3.21,3.21,0,0,0,2438.27,1041.57Z" transform="translate(-276.59 -200.87)"/><path class="cls-7" d="M2377.72,1039.85a2.62,2.62,0,0,0,1.14-.79,2.67,2.67,0,0,0-.34-3.74c-.18-.14-4.38-3.58-9.66-2.72-3.61.6-6.71,3-9.21,7a2.65,2.65,0,1,0,4.52,2.77c1.66-2.7,3.53-4.24,5.55-4.58a7.68,7.68,0,0,1,5.41,1.57A2.64,2.64,0,0,0,2377.72,1039.85Z" transform="translate(-276.59 -200.87)"/><path class="cls-7" d="M2346.6,993.13l78.36-51.4,81.17,58.07-20.42,61.77c2.18-29.63-17.19-22.88-25.17-32.85s-10.14-24.27-34.06-15.61c0,0-16.09-15.06-27.92,1-9.15,12.4-18.43,8.36-28.17,7.61-11.49-.88-10.45,10.57-17.34,9.17Z" transform="translate(-276.59 -200.87)"/><path class="cls-16" d="M2480.47,1040.61c-7.18,8.29-7.5,19.78-.7,25.66s18.11,3.91,25.29-4.39,7.49-19.79.7-25.67S2487.65,1032.3,2480.47,1040.61Z" transform="translate(-276.59 -200.87)"/><path class="cls-17" d="M2489.79,1062.18a2.44,2.44,0,0,1-1-.53c-4.12-3.69-5.4-8.51-3.42-12.88A11.58,11.58,0,0,1,2497,1042a2.4,2.4,0,1,1-.59,4.77,6.84,6.84,0,0,0-6.62,4c-1.1,2.44-.31,5,2.25,7.32a2.4,2.4,0,0,1-2.23,4.11Z" transform="translate(-276.59 -200.87)"/><path class="cls-4" d="M2388.71,1104.72a2.11,2.11,0,0,1,1.54-3.56,175.88,175.88,0,0,0,19.91-.93,178,178,0,0,0,19.6-3.55,2.1,2.1,0,0,1,2.3,3.12c-2.86,5-9.08,12.68-20.37,14S2392.61,1108.9,2388.71,1104.72Z" transform="translate(-276.59 -200.87)"/><path d="M2423.58,1068.57c-8.55,0-15.89-5.28-17.09-12.81a14.47,14.47,0,0,1,3.63-11.87,20.41,20.41,0,0,1,25.14-4,14.5,14.5,0,0,1,7.15,10.15c1.36,8.5-5.59,16.7-15.5,18.28A21.05,21.05,0,0,1,2423.58,1068.57Zm1.78-27.36a17.05,17.05,0,0,0-2.74.22,15.78,15.78,0,0,0-9.48,5.07,10.57,10.57,0,0,0-2.7,8.63c1,6.32,8.12,10.46,15.84,9.23s13.19-7.39,12.18-13.71a10.53,10.53,0,0,0-5.25-7.35A15.21,15.21,0,0,0,2425.36,1041.21Z" transform="translate(-276.59 -200.87)"/><path d="M2375.38,1070.87a21.59,21.59,0,0,1-3.57-.3,20,20,0,0,1-12-6.58,14.73,14.73,0,0,1-3.59-12.06c1.44-8.6,10.76-14.23,20.79-12.55a20,20,0,0,1,12,6.58,14.66,14.66,0,0,1,3.58,12h0a14.67,14.67,0,0,1-7.31,10.23A19.41,19.41,0,0,1,2375.38,1070.87Zm-1.91-27.79c-6.66,0-12.34,3.89-13.28,9.51a10.75,10.75,0,0,0,2.68,8.8,16.72,16.72,0,0,0,20.38,3.41,10.77,10.77,0,0,0,5.4-7.45h0a10.77,10.77,0,0,0-2.69-8.8,16,16,0,0,0-9.59-5.23A18,18,0,0,0,2373.47,1043.08Z" transform="translate(-276.59 -200.87)"/><rect x="2113.54" y="850.02" width="18.21" height="4"/><path d="M2440.44,1052.34a2,2,0,0,1-.22-4c2-.4,25.39-7.49,40.73-12.19a2,2,0,1,1,1.17,3.82c-40.25,12.34-41.31,12.35-41.66,12.35Zm0-4h0Z" transform="translate(-276.59 -200.87)"/><g id="v"><path class="cls-13" d="M2555.71,1472.2s-58.95,6.08-114.2,6.45c-55.24-.41-114.19-11.13-114.19-11.13s7.42-101.45,6.66-140.41c-1.07-44.74,2.87-104.06,2.87-163.19,0,0,39.19-6.3,61.29-9,3.59-.44,6.73-.79,9.19-1,0,0,12.59,26.42,67.47,0a69,69,0,0,1,10.44,0c23.05,1.37,60.18,10.07,60.18,10.07,0,59,2.38,116.75,1.59,161.5C2549.46,1365.33,2555.71,1472.2,2555.71,1472.2Z" transform="translate(-276.59 -200.87)"/></g><path class="cls-4" d="M2395.88,1155.17c-1,5.69-46,315.9-46,315.9l-22.54-3.55,9.53-303.6A253.55,253.55,0,0,1,2395.88,1155.17Z" transform="translate(-276.59 -200.87)"/><path class="cls-4" d="M2545.42,1163.92s-22.62-7.19-60.18-10.07c0,2.88-25.27,462.78-25.27,462.78l117-9Z" transform="translate(-276.59 -200.87)"/><g id="c-2" data-name="c"><path class="cls-16" d="M2410.37,1291.73,2397,1284s-3.7-19-25.18-19.42c2.46,8,6,19.42,6,19.42s-10.58,8.21-35.65-5.83c-24.51-5.51-14,12.36-22.16,13.64-12,1.89,8.74,25.45,33.21,29,31.66,4.67,35.42-1.82,35.42-1.82l17.92,6.27Z" transform="translate(-276.59 -200.87)"/><path id="c-3" data-name="c" class="cls-15" d="M2534.13,1312c-44.7-3.12-121-25.2-121-25.2-12.21,18.72-8.83,43.58-8.83,43.58,69.42,60.86,173.9,80.53,206,65.89,29.26-13.38,8.6-191.53-64.88-232.35l-2.54.24C2517.68,1206.79,2534.13,1312,2534.13,1312Z" transform="translate(-276.59 -200.87)"/></g><path class="cls-24" d="M2485.24,1153.85h0c-3.82,6.37-9.22,11.19-16.83,15-12.06,6.09-28.46,8.67-38.55,7.88-8-.63-16.85-3.89-22.53-8.39-6-4.79-8.66-10.89-9.19-13.48,3.59-.44,7.28-1,9.74-1.22,0,0,12,26.64,66.92.22A69,69,0,0,1,2485.24,1153.85Z" transform="translate(-276.59 -200.87)"/></g><path class="cls-25" d="M2782.62,1478.65H778.7a20.52,20.52,0,0,1-20.52-20.52h0a20.51,20.51,0,0,1,20.52-20.52H2782.62a20.51,20.51,0,0,1,20.52,20.52h0A20.52,20.52,0,0,1,2782.62,1478.65Z" transform="translate(-276.59 -200.87)"/><rect class="cls-25" x="538.09" y="1265.58" width="35.78" height="452.39" rx="17.57"/><rect class="cls-25" x="2462.33" y="1265.58" width="35.78" height="452.39" rx="17.57"/><path class="cls-9" d="M2354.56,1438h-236.3l-46.64-148.3a10.63,10.63,0,0,1,10.14-13.82h214a10.63,10.63,0,0,1,10.14,7.44Z" transform="translate(-276.59 -200.87)"/><path class="cls-5" d="M2336.63,1438H2100.34l-46.64-148.3a10.63,10.63,0,0,1,10.14-13.82h214a10.62,10.62,0,0,1,10.14,7.44Z" transform="translate(-276.59 -200.87)"/><path class="cls-26" d="M2197.52,1359.84c2.6,9.16-2,18.5-10.35,20.86s-17.17-3.14-19.77-12.3,2-18.51,10.35-20.87S2194.92,1350.68,2197.52,1359.84Z" transform="translate(-276.59 -200.87)"/><path class="cls-9" d="M2488.8,1422.49H2336.63v15.12h167.28A15.11,15.11,0,0,0,2488.8,1422.49Z" transform="translate(-276.59 -200.87)"/><path class="cls-16" d="M2600.93,1284.69c10.57-5,22.38-8,26-23.12,0,0,28.6-7.6,58.56-14.26,0,0-36.47-33.43-36.5-33.42-11.86,4-33.74,18.79-47.13,19.13-3.48.09-7,0-10.46,0-8.51-.07-17.37-1.08-26.49,5.64-35.23,26-49,21.55-50.44,24.55-1.19,4.67,8.29,13.6,26.24,4.62,17.37-8.7,26.6-8.84,26.6-8.84s-.3,15.17,5.73,19.51C2575.75,1280.52,2588.58,1290.59,2600.93,1284.69Z" transform="translate(-276.59 -200.87)"/><path class="cls-15" d="M2635.48,1212.65s93.5-45.09,164.58-59.69c-9.82-35.57,6.21-199.92,6.21-199.92s48,11.78,71.84,100.8-30.83,179.62-30.83,179.62-147.41,41-200.13,26C2638.88,1257.09,2635.48,1212.65,2635.48,1212.65Z" transform="translate(-276.59 -200.87)"/><circle class="cls-4" cx="1559.13" cy="1022.72" r="74.74"/><path class="cls-27" d="M1903,1223.59a67.28,67.28,0,1,1-134.55,0Z" transform="translate(-276.59 -200.87)"/><path class="cls-18" d="M1910.09,1268.61H1770.27a7.2,7.2,0,0,1-7.21-7.2h0a7.21,7.21,0,0,1,7.21-7.21h139.82a7.21,7.21,0,0,1,7.21,7.21h0A7.2,7.2,0,0,1,1910.09,1268.61Z" transform="translate(-276.59 -200.87)"/><path class="cls-18" d="M1715.49,1438.08a6.17,6.17,0,0,1-1.93-.3,6.23,6.23,0,0,1-4-7.84l60.55-163.25a6.22,6.22,0,0,1,11.83,3.85l-60.55,163.25A6.2,6.2,0,0,1,1715.49,1438.08Z" transform="translate(-276.59 -200.87)"/><path class="cls-18" d="M1962,1438.08a6.21,6.21,0,0,1-5.88-4.21l-63.43-163.25a6.22,6.22,0,0,1,11.78-4l63.42,163.25a6.22,6.22,0,0,1-3.88,7.89A6.09,6.09,0,0,1,1962,1438.08Z" transform="translate(-276.59 -200.87)"/><path class="cls-18" d="M1840.18,1437.69a6.22,6.22,0,0,1-6.22-6.22V1261.41a6.22,6.22,0,0,1,12.44,0v170.06A6.23,6.23,0,0,1,1840.18,1437.69Z" transform="translate(-276.59 -200.87)"/><rect class="cls-4" x="1854.76" y="1089.76" width="39.12" height="118.52" transform="translate(546.29 -982.6) rotate(29.92)"/><path class="cls-4" d="M1917.7,1110.73l-32.11-18a8.18,8.18,0,0,1-3.12-11.15l.36-.65a8.19,8.19,0,0,1,11.15-3.12l32.11,18a8.18,8.18,0,0,1,3.13,11.15l-.36.65A8.2,8.2,0,0,1,1917.7,1110.73Z" transform="translate(-276.59 -200.87)"/><path class="cls-27" d="M1816.4,1192.61a5,5,0,1,1-5-5A5,5,0,0,1,1816.4,1192.61Z" transform="translate(-276.59 -200.87)"/><path class="cls-27" d="M1838.65,1166.91a2.93,2.93,0,1,1-2.92-2.92A2.93,2.93,0,0,1,1838.65,1166.91Z" transform="translate(-276.59 -200.87)"/><path class="cls-27" d="M1895.26,1129.62a2.93,2.93,0,1,1-2.92-2.92A2.92,2.92,0,0,1,1895.26,1129.62Z" transform="translate(-276.59 -200.87)"/><path class="cls-27" d="M1882.67,1200.66a2.92,2.92,0,1,1-2.92-2.92A2.91,2.91,0,0,1,1882.67,1200.66Z" transform="translate(-276.59 -200.87)"/><path class="cls-27" d="M1834,1210.14a4.3,4.3,0,1,1-4.29-4.29A4.29,4.29,0,0,1,1834,1210.14Z" transform="translate(-276.59 -200.87)"/><path class="cls-27" d="M1874.25,1150.17a4.36,4.36,0,1,1-4.36-4.36A4.36,4.36,0,0,1,1874.25,1150.17Z" transform="translate(-276.59 -200.87)"/><path class="cls-27" d="M1864.16,1192.61a5.28,5.28,0,1,1-5.28-5.28A5.28,5.28,0,0,1,1864.16,1192.61Z" transform="translate(-276.59 -200.87)"/><path class="cls-4" d="M1309.2,1414.49l-62.14-118.81V1206.2h0a5.5,5.5,0,0,0,5.5-5.51v-2.78a5.51,5.51,0,0,0-5.5-5.51h-33a5.51,5.51,0,0,0-5.51,5.51v2.78a5.51,5.51,0,0,0,5.51,5.51h0v89.48l-62.14,118.81c-5.23,10,1.06,22.71,11.23,22.71H1298C1308.14,1437.2,1314.43,1424.49,1309.2,1414.49Z" transform="translate(-276.59 -200.87)"/><path class="cls-5" d="M1267.11,1352.71H1194l-29,55.45c-4.36,8.33.88,18.92,9.37,18.92h112.41c8.48,0,13.72-10.59,9.36-18.92Z" transform="translate(-276.59 -200.87)"/><path class="cls-16" d="M947,978.79h13.75a6.05,6.05,0,0,1,6.05,6.05v6.69a0,0,0,0,1,0,0H940.92a0,0,0,0,1,0,0v-6.69A6.06,6.06,0,0,1,947,978.79Z"/><path class="cls-4" d="M1091.89,1341.91l-53.09-119.32V1179.5h0c2.6,0,4.71-2.85,4.71-6.37V1172c0-3.53-2.11-6.38-4.71-6.38h-28.24c-2.59,0-4.7,2.85-4.7,6.38v1.1c0,3.52,2.11,6.37,4.7,6.37h0v43.09l-53.09,119.32c-4.46,10,.91,22.81,9.61,22.81h115.21C1091,1364.72,1096.36,1352,1091.89,1341.91Z" transform="translate(-276.59 -200.87)"/><path class="cls-5" d="M1063,1300.53H984.24l-15.58,35c-3.72,8.37.75,19,8,19h96c7.25,0,11.73-10.64,8-19Z" transform="translate(-276.59 -200.87)"/><path class="cls-28" d="M1014.72,1286.13a6.52,6.52,0,1,1-6.52-6.52A6.52,6.52,0,0,1,1014.72,1286.13Z" transform="translate(-276.59 -200.87)"/><path class="cls-28" d="M1028.42,1267.59a3.74,3.74,0,1,1-3.74-3.74A3.74,3.74,0,0,1,1028.42,1267.59Z" transform="translate(-276.59 -200.87)"/><path class="cls-28" d="M1046.63,1295.29a3.74,3.74,0,1,1-3.74-3.74A3.73,3.73,0,0,1,1046.63,1295.29Z" transform="translate(-276.59 -200.87)"/><path class="cls-28" d="M1020.94,1247a3.74,3.74,0,1,1-3.74-3.74A3.74,3.74,0,0,1,1020.94,1247Z" transform="translate(-276.59 -200.87)"/><path class="cls-18" d="M931,1437.36h174.52a22.24,22.24,0,0,0,22.24-22.24h0a22.25,22.25,0,0,0-22.24-22.25H931a22.25,22.25,0,0,0-22.25,22.25h0A22.25,22.25,0,0,0,931,1437.36Z" transform="translate(-276.59 -200.87)"/><path class="cls-18" d="M929.21,1157.45H941.4a1.6,1.6,0,0,1,1.6,1.6v240a7.51,7.51,0,0,1-7.51,7.51h-.37a7.51,7.51,0,0,1-7.51-7.51v-240a1.6,1.6,0,0,1,1.6-1.6Z" transform="translate(1594.01 2363.14) rotate(180)"/><path class="cls-18" d="M915.63,1201.39h154a6.85,6.85,0,0,0,6.84-6.85h0a6.84,6.84,0,0,0-6.84-6.84h-154a6.85,6.85,0,0,0-6.85,6.84h0A6.85,6.85,0,0,0,915.63,1201.39Z" transform="translate(-276.59 -200.87)"/><path class="cls-18" d="M917.44,1195.25a17.12,17.12,0,1,0,17.12-17.12A17.12,17.12,0,0,0,917.44,1195.25Z" transform="translate(-276.59 -200.87)"/><path class="cls-16" d="M886.66,1069.69h13.75a6.06,6.06,0,0,1,6.06,6.06v6.69a0,0,0,0,1,0,0H880.61a0,0,0,0,1,0,0v-6.69A6.05,6.05,0,0,1,886.66,1069.69Z"/><path class="cls-4" d="M1240.55,1419.57l-55.62-92.24V1294h0a4.93,4.93,0,0,0,4.93-4.93v-.85a4.93,4.93,0,0,0-4.93-4.93h-29.59a4.93,4.93,0,0,0-4.93,4.93v.85a4.93,4.93,0,0,0,4.93,4.93h0v33.31l-55.62,92.24a11.65,11.65,0,0,0,10.06,17.63h120.71A11.65,11.65,0,0,0,1240.55,1419.57Z" transform="translate(-276.59 -200.87)"/><path class="cls-13" d="M1202.87,1371.6H1137.4l-26,43.05a9.7,9.7,0,0,0,8.38,14.69h100.63a9.7,9.7,0,0,0,8.38-14.69Z" transform="translate(-276.59 -200.87)"/><path class="cls-16" d="M581.82,1028.69h13.75a6.05,6.05,0,0,1,6.05,6.05v6.69a0,0,0,0,1,0,0H575.77a0,0,0,0,1,0,0v-6.69A6.05,6.05,0,0,1,581.82,1028.69Z"/><path class="cls-4" d="M936.73,1420.33l-56.43-95.24v-71.72h0a5,5,0,0,0,5-5v-1a5,5,0,0,0-5-5h-30a5,5,0,0,0-5,5v1a5,5,0,0,0,5,5h0v71.72l-56.43,95.24a12,12,0,0,0,10.2,18.2H926.52A12,12,0,0,0,936.73,1420.33Z" transform="translate(-276.59 -200.87)"/><path class="cls-27" d="M898.51,1370.8H832.08l-26.33,44.45a10,10,0,0,0,8.5,15.17H916.33a10,10,0,0,0,8.51-15.17Z" transform="translate(-276.59 -200.87)"/><path class="cls-16" d="M1940.24,1238.56h-7.88a5.36,5.36,0,0,0-5.36,5.36v13.24h18.6v-13.24A5.36,5.36,0,0,0,1940.24,1238.56Z" transform="translate(-276.59 -200.87)"/><path class="cls-4" d="M1951.45,1256.16h-30.3a5.36,5.36,0,0,0-5.34,5.35v3.12a5.36,5.36,0,0,0,5.34,5.34h2.45v135.78a12.81,12.81,0,1,0,25.62,0V1270h2.23a5.36,5.36,0,0,0,5.34-5.34v-3.12A5.36,5.36,0,0,0,1951.45,1256.16Z" transform="translate(-276.59 -200.87)"/><path class="cls-29" d="M1926.5,1344.29v60.62a9.8,9.8,0,1,0,19.6,0v-60.62Z" transform="translate(-276.59 -200.87)"/><path class="cls-16" d="M2047.57,1238.56h-7.88a5.36,5.36,0,0,0-5.36,5.36v13.24h18.6v-13.24A5.36,5.36,0,0,0,2047.57,1238.56Z" transform="translate(-276.59 -200.87)"/><path class="cls-4" d="M2059.71,1256.16h-30.29a5.37,5.37,0,0,0-5.35,5.35v3.12a5.37,5.37,0,0,0,5.35,5.34h2.45v135.78a12.81,12.81,0,1,0,25.62,0V1270h2.22a5.36,5.36,0,0,0,5.35-5.34v-3.12A5.36,5.36,0,0,0,2059.71,1256.16Z" transform="translate(-276.59 -200.87)"/><path class="cls-29" d="M2034.54,1334.35l.22,70.56a9.81,9.81,0,1,0,19.61,0l-.22-70.56Z" transform="translate(-276.59 -200.87)"/><path class="cls-4" d="M2005.58,1256.16h-30.29a5.36,5.36,0,0,0-5.35,5.35v3.12a5.36,5.36,0,0,0,5.35,5.34h2.45v135.78a12.81,12.81,0,1,0,25.61,0V1270h2.23a5.37,5.37,0,0,0,5.35-5.34v-3.12A5.37,5.37,0,0,0,2005.58,1256.16Z" transform="translate(-276.59 -200.87)"/><path class="cls-30" d="M1980.85,1313.79l-.22,91.12a9.81,9.81,0,1,0,19.61,0l.22-91.12Z" transform="translate(-276.59 -200.87)"/><path class="cls-16" d="M1994.48,1237.22h-7.87a5.37,5.37,0,0,0-5.37,5.37v13.24h18.61v-13.24A5.37,5.37,0,0,0,1994.48,1237.22Z" transform="translate(-276.59 -200.87)"/><path class="cls-18" d="M2095.72,1290.47h-216a2.68,2.68,0,0,1-2.68-2.68h0a2.68,2.68,0,0,1,2.68-2.67h216a2.68,2.68,0,0,1,2.67,2.67h0A2.68,2.68,0,0,1,2095.72,1290.47Z" transform="translate(-276.59 -200.87)"/><rect class="cls-18" x="1615.26" y="1089.6" width="4.68" height="137.11"/><rect class="cls-18" x="1802.3" y="1089.6" width="4.68" height="137.11"/><path class="cls-18" d="M2090.71,1437.61h-206a5,5,0,0,1-5-5h0a5,5,0,0,1,5-5h206a5,5,0,0,1,5,5h0A5,5,0,0,1,2090.71,1437.61Z" transform="translate(-276.59 -200.87)"/></svg>