<svg id="Layer_1" data-name="Layer 1" xmlns="http://www.w3.org/2000/svg" viewBox="0 0 2048.19 960.47"><defs><style>.cls-1{fill:#0559ad;}.cls-2{fill:#0566c7;}.cls-21,.cls-3{fill:#e6f2fc;}.cls-4{fill:#baddff;}.cls-5{fill:#0666c7;}.cls-6{fill:#0782fa;}.cls-7{fill:#ffab19;}.cls-8{fill:#9eccfb;}.cls-9{fill:#53a7fb;}.cls-10{fill:#ffceb4;}.cls-11{fill:#eab9a1;}.cls-12{fill:#8fc9f7;}.cls-13{fill:#043f7a;}.cls-14,.cls-23{fill:#fff;}.cls-15{fill:#053e6d;}.cls-16{fill:#d4e9ff;}.cls-17{fill:#9dccfa;}.cls-18{fill:#ffd9c7;}.cls-19{fill:#1e189d;}.cls-20{fill:#53a8fb;}.cls-21{opacity:0.71;}.cls-22{fill:#fc9e17;}.cls-23{opacity:0.14;}</style></defs><title>rp_homePage</title><path class="cls-1" d="M2172.61,638.7l-10.8-61.26a10.06,10.06,0,0,0-10.73-8.26l-23.65,2a159.36,159.36,0,0,0-12.48-22l13.78-20a10,10,0,0,0-1.81-13.39l-47.65-40a10,10,0,0,0-13.53.57L2048.89,493a159.3,159.3,0,0,0-23.7-8.7L2022.87,460a10,10,0,0,0-10-9.09h-62.21a10.05,10.05,0,0,0-10,9.13l-2.22,24.33a158.73,158.73,0,0,0-23.1,8.45l-18-17.73a10,10,0,0,0-13.5-.54l-47.65,40a10,10,0,0,0-1.8,13.42l14.56,20.95a159.06,159.06,0,0,0-11.83,20.52l-26.25-2.09a10,10,0,0,0-10.69,8.27l-10.8,61.26a10,10,0,0,0,7.26,11.43l25.48,6.93a161.55,161.55,0,0,0,3.93,22.61l-22.12,15.75a10,10,0,0,0-2.87,13.2l31.1,53.88a10,10,0,0,0,12.91,4.09l24.31-11.22a161,161,0,0,0,17.27,14.73l-6.88,26.5a10,10,0,0,0,6.28,12L1944.5,828a10,10,0,0,0,12.52-5.16L1968.26,799q6.72.57,13.6.58,4.77,0,9.48-.29l11.54,24.27a10.06,10.06,0,0,0,12.51,5.12l58.45-21.28a10.05,10.05,0,0,0,6.28-12l-6.5-24.62a160.89,160.89,0,0,0,18.54-15.09l23.53,10.75a10,10,0,0,0,12.87-4.11l31.1-53.88a10,10,0,0,0-2.9-13.22l-19.94-14.07a159.26,159.26,0,0,0,4.62-24.36l23.95-6.62A10.05,10.05,0,0,0,2172.61,638.7Zm-246.74.27a56,56,0,1,1,56,56A56,56,0,0,1,1925.87,639Z" transform="translate(-575.91 -321.75)"/><path class="cls-2" d="M1981,771.24a131.17,131.17,0,1,1,92.75-38.42A130.32,130.32,0,0,1,1981,771.24Zm0-259.9c-71,0-128.73,57.74-128.73,128.72a128.73,128.73,0,1,0,257.46,0C2109.72,569.08,2052,511.34,1981,511.34Z" transform="translate(-575.91 -321.75)"/><path class="cls-2" d="M1981,728.67a88.61,88.61,0,1,1,88.61-88.61A88.71,88.71,0,0,1,1981,728.67Zm0-174.77a86.17,86.17,0,1,0,86.17,86.16A86.26,86.26,0,0,0,1981,553.9Z" transform="translate(-575.91 -321.75)"/><path class="cls-1" d="M2427.89,757.76l-6.42-36.45a6,6,0,0,0-6.39-4.91L2401,717.57a95.26,95.26,0,0,0-7.43-13.1l8.2-11.91a6,6,0,0,0-1.08-8l-28.35-23.79a6,6,0,0,0-8.05.34l-10,10a94.58,94.58,0,0,0-14.1-5.18l-1.38-14.49a6,6,0,0,0-5.95-5.4h-37a6,6,0,0,0-6,5.43l-1.32,14.47a94,94,0,0,0-13.75,5l-10.71-10.55a6,6,0,0,0-8-.32l-28.35,23.79a6,6,0,0,0-1.07,8l8.66,12.46a96.47,96.47,0,0,0-7,12.21l-15.61-1.24a6,6,0,0,0-6.36,4.92l-6.42,36.44a6,6,0,0,0,4.31,6.8l15.16,4.13a94.48,94.48,0,0,0,2.34,13.45l-13.16,9.37a6,6,0,0,0-1.71,7.85l18.5,32a6,6,0,0,0,7.68,2.44l14.46-6.68a97.61,97.61,0,0,0,10.28,8.76l-4.1,15.77a6,6,0,0,0,3.74,7.11l34.78,12.66a6,6,0,0,0,7.45-3.07l6.68-14.2c2.67.22,5.37.34,8.1.34,1.89,0,3.77-.06,5.64-.17l6.86,14.43a6,6,0,0,0,7.44,3l34.78-12.66a6,6,0,0,0,3.73-7.13L2369,836.3a95.22,95.22,0,0,0,11-9l14,6.4a6,6,0,0,0,7.66-2.45l18.5-32a6,6,0,0,0-1.73-7.87L2406.6,783a94.84,94.84,0,0,0,2.75-14.49l14.25-3.94A6,6,0,0,0,2427.89,757.76Zm-146.78.15a33.31,33.31,0,1,1,33.31,33.31A33.31,33.31,0,0,1,2281.11,757.91Z" transform="translate(-575.91 -321.75)"/><path class="cls-2" d="M2313.9,836.6a78,78,0,1,1,55.18-22.86A77.52,77.52,0,0,1,2313.9,836.6Zm0-154.62a76.58,76.58,0,1,0,76.58,76.58A76.67,76.67,0,0,0,2313.9,682Z" transform="translate(-575.91 -321.75)"/><path class="cls-2" d="M2313.9,811.28a52.72,52.72,0,1,1,52.71-52.72A52.78,52.78,0,0,1,2313.9,811.28Zm0-104a51.26,51.26,0,1,0,51.26,51.26A51.32,51.32,0,0,0,2313.9,707.3Z" transform="translate(-575.91 -321.75)"/><path class="cls-3" d="M1950.56,1094.87h249.17a4.91,4.91,0,0,0,4.7-5.1h0c13.22-15.18,13.33-38.89.25-54.22l-.25-.29a4.39,4.39,0,0,0-4.2-4.56H1950.56a109.69,109.69,0,0,1,.48,62.52Z" transform="translate(-575.91 -321.75)"/><path class="cls-4" d="M2204.38,1034.53a5.84,5.84,0,0,1,0,.73l.25.29.06.08h-252.8c-.09-.37-.18-.73-.28-1.1Z" transform="translate(-575.91 -321.75)"/><path class="cls-4" d="M1953.27,1041.46h254.85v1.09H1953.48Z" transform="translate(-575.91 -321.75)"/><path class="cls-4" d="M1954.41,1048.39h256.06v1.09H1954.55C1954.5,1049.12,1954.46,1048.75,1954.41,1048.39Z" transform="translate(-575.91 -321.75)"/><path class="cls-4" d="M1955.1,1055.31h257.05v1.1h-257C1955.15,1056,1955.12,1055.68,1955.1,1055.31Z" transform="translate(-575.91 -321.75)"/><path class="cls-4" d="M1955.35,1062.24h256.47v1.1H1955.35Z" transform="translate(-575.91 -321.75)"/><path class="cls-4" d="M1955.17,1069.17h256.65v1.09H1955.1C1955.12,1069.9,1955.14,1069.53,1955.17,1069.17Z" transform="translate(-575.91 -321.75)"/><path class="cls-4" d="M1954.54,1076.1h256.77v1.09H1954.4C1954.45,1076.83,1954.5,1076.46,1954.54,1076.1Z" transform="translate(-575.91 -321.75)"/><path class="cls-4" d="M1953.47,1083h255.69c-.2.37-.41.74-.63,1.1H1953.26Z" transform="translate(-575.91 -321.75)"/><path class="cls-5" d="M2156.33,1095.6l159.85.55c7,0,12.58-5.26,12.58-11.76V1082l3.77-15.55a24,24,0,0,0-.29-12.35l-3.48-12h0c0-6.61-5.74-12-12.81-12l-160.13-.19,9.46,16,1.24,18.23-.85,16.77Z" transform="translate(-575.91 -321.75)"/><path class="cls-4" d="M1951.89,1090h211.18a6.61,6.61,0,0,1-.12,1.1h-211.3Z" transform="translate(-575.91 -321.75)"/><path class="cls-6" d="M2215.84,1030.26h-25.23s7.34,4.39,7.8,29.92-4.81,33.21-7.34,35.13c-1.93,1.48-.23,2.47-.23,2.47l29.81-2.19s7.8-4.67,7.34-32.94c-.29-17.84-1.38-23.61-6.42-31C2219.62,1028.78,2215.84,1030.26,2215.84,1030.26Z" transform="translate(-575.91 -321.75)"/><path class="cls-6" d="M2301.73,1030.26h-25.22s7.33,4.39,7.79,29.92-4.81,33.21-7.33,35.13c-1.94,1.48-.23,2.47-.23,2.47l29.8-2.19s7.8-4.67,7.34-32.94c-.29-17.84-1.38-23.61-6.42-31C2305.52,1028.78,2301.73,1030.26,2301.73,1030.26Z" transform="translate(-575.91 -321.75)"/><path class="cls-6" d="M2149.89,1031.8H1948.6a2.07,2.07,0,0,1-1.73-2.28h0a2.07,2.07,0,0,1,1.73-2.28h202.54a10.41,10.41,0,0,1,5.21,1.39c7.7,4.41,12,13.89,12,33.48,0,.43,0,.85,0,1.27s0,.85,0,1.28c0,19.59-4.32,29-12,33.39a10.47,10.47,0,0,1-5.2,1.38H1948.6a2.07,2.07,0,0,1-1.73-2.28h0a2.07,2.07,0,0,1,1.73-2.28h201.32c4,0,7.84-2.33,10.34-6.45,3-5,4.64-12.52,4.64-23.89,0-.39,0-.77,0-1.15s0-.76,0-1.14c0-11.12-1.55-18.61-4.44-23.62C2158,1034.29,2154,1031.8,2149.89,1031.8Z" transform="translate(-575.91 -321.75)"/><path class="cls-6" d="M2313.61,1031.8H2091.17a2.12,2.12,0,0,1-1.92-2.28h0a2.12,2.12,0,0,1,1.92-2.28H2315a12.45,12.45,0,0,1,5.76,1.39c8.51,4.41,13.28,13.89,13.28,33.48,0,.43,0,.85,0,1.27s0,.85,0,1.28c0,19.59-4.77,29-13.29,33.39a12.52,12.52,0,0,1-5.75,1.38H2091.17a2.12,2.12,0,0,1-1.92-2.28h0a2.12,2.12,0,0,1,1.92-2.28h222.47a13.84,13.84,0,0,0,11.43-6.45c3.34-5,5.13-12.52,5.13-23.89,0-.39,0-.77,0-1.15s0-.76,0-1.14c0-11.12-1.72-18.61-4.91-23.62A14,14,0,0,0,2313.61,1031.8Z" transform="translate(-575.91 -321.75)"/><path class="cls-3" d="M1950.5,1266.89h270.06a5,5,0,0,0,5.09-5h0a38.28,38.28,0,0,0,.27-53.07l-.27-.28a4.51,4.51,0,0,0-4.55-4.47H1950.5a97.48,97.48,0,0,1,.52,61.2Z" transform="translate(-575.91 -321.75)"/><path class="cls-4" d="M2225.59,1207.82a4.2,4.2,0,0,1,.06.72l.27.28.07.07H1952l-.3-1.07Z" transform="translate(-575.91 -321.75)"/><path class="cls-4" d="M1953.42,1214.6h276.24v1.07h-276Z" transform="translate(-575.91 -321.75)"/><path class="cls-4" d="M1954.66,1221.38H2232.2v1.07H1954.81C1954.76,1222.1,1954.72,1221.74,1954.66,1221.38Z" transform="translate(-575.91 -321.75)"/><path class="cls-4" d="M1955.41,1228.16H2234v1.08H1955.49C1955.46,1228.88,1955.44,1228.52,1955.41,1228.16Z" transform="translate(-575.91 -321.75)"/><path class="cls-4" d="M1955.69,1235h278V1236h-278C1955.69,1235.66,1955.69,1235.3,1955.69,1235Z" transform="translate(-575.91 -321.75)"/><path class="cls-4" d="M1955.48,1241.73h278.18v1.07H1955.41C1955.44,1242.44,1955.46,1242.08,1955.48,1241.73Z" transform="translate(-575.91 -321.75)"/><path class="cls-4" d="M1954.81,1248.51h278.3v1.07H1954.66Z" transform="translate(-575.91 -321.75)"/><path class="cls-4" d="M1953.64,1255.29h277.14c-.22.36-.45.71-.68,1.07H1953.42C1953.49,1256,1953.57,1255.64,1953.64,1255.29Z" transform="translate(-575.91 -321.75)"/><path class="cls-6" d="M2209.25,1267.6l241.24.54c10.49,0,19-5.16,19-11.51v-2.35l5.69-15.23a15.56,15.56,0,0,0-.43-12.08l-5.26-11.71h0c0-6.47-8.65-11.72-19.33-11.72l-241.68-.18,14.29,15.7,1.87,17.85-1.28,16.41Z" transform="translate(-575.91 -321.75)"/><path class="cls-4" d="M1952,1262.07h267.15a4.68,4.68,0,0,1-.15,1.07h-267.3Z" transform="translate(-575.91 -321.75)"/><path class="cls-7" d="M2430.23,1236.18c-.32-17.85-1.49-23.62-7-31a4,4,0,0,0-1.77-1.38h12.7s4.1-1.45,6.21,1.34c5.47,7.25,6.64,12.9,7,30.36.49,27.68-7.95,32.24-7.95,32.24l-16.68,1.11C2424.49,1267.35,2430.65,1260.46,2430.23,1236.18Z" transform="translate(-575.91 -321.75)"/><path class="cls-7" d="M2269.14,1235.8c-.31-17.86-1.49-23.63-7-31a4.14,4.14,0,0,0-1.76-1.38h12.69s4.11-1.45,6.21,1.35c5.47,7.25,6.65,12.89,7,30.36.5,27.67-8,32.24-8,32.24l-16.68,1.11C2263.41,1267,2269.57,1260.08,2269.14,1235.8Z" transform="translate(-575.91 -321.75)"/><path class="cls-5" d="M2202.66,1205.15h-254a2.21,2.21,0,0,1-2.19-2.24h0a2.21,2.21,0,0,1,2.19-2.23h255.55a16.21,16.21,0,0,1,6.58,1.37c9.72,4.31,15.16,13.59,15.16,32.76,0,.43,0,.84,0,1.25s0,.83,0,1.25c0,19.18-5.45,28.39-15.17,32.68a16.3,16.3,0,0,1-6.56,1.36H1948.68a2.21,2.21,0,0,1-2.19-2.23h0a2.2,2.2,0,0,1,2.19-2.23h254a16.56,16.56,0,0,0,13.06-6.33c3.8-4.87,5.84-12.25,5.84-23.38,0-.37,0-.75,0-1.12s0-.74,0-1.12c0-10.88-2-18.22-5.59-23.12A16.61,16.61,0,0,0,2202.66,1205.15Z" transform="translate(-575.91 -321.75)"/><path class="cls-5" d="M2446,1205.15H2103.76c-1.63,0-3-1-3-2.24h0c0-1.23,1.32-2.23,3-2.23h344.4a28.47,28.47,0,0,1,8.87,1.37c13.09,4.31,20.43,13.59,20.43,32.76,0,.43,0,.84,0,1.25s0,.83,0,1.25c0,19.18-7.34,28.39-20.45,32.68a28.57,28.57,0,0,1-8.84,1.36H2103.76c-1.63,0-3-1-3-2.23h0c0-1.24,1.32-2.23,3-2.23h342.33c6.82,0,13.34-2.29,17.59-6.33,5.13-4.87,7.88-12.25,7.88-23.38,0-.37,0-.75,0-1.12s0-.74,0-1.12c0-10.88-2.63-18.22-7.54-23.12C2459.77,1207.58,2453.08,1205.15,2446,1205.15Z" transform="translate(-575.91 -321.75)"/><path class="cls-3" d="M2359.57,1148.42H2095.75c-2.74,0-5-1.65-5-3.7h0c-14-11-14.12-28.16-.27-39.25l.27-.21c0-1.82,2-3.3,4.44-3.3h264.35a55.59,55.59,0,0,0-.5,45.26Z" transform="translate(-575.91 -321.75)"/><path class="cls-4" d="M2090.83,1104.73a3.07,3.07,0,0,0,0,.53l-.27.21-.06,0h267.66l.3-.79Z" transform="translate(-575.91 -321.75)"/><path class="cls-4" d="M2356.71,1109.75H2086.87v.79h269.62C2356.56,1110.27,2356.64,1110,2356.71,1109.75Z" transform="translate(-575.91 -321.75)"/><path class="cls-4" d="M2355.5,1114.76H2084.38v.79h271C2355.4,1115.29,2355.45,1115,2355.5,1114.76Z" transform="translate(-575.91 -321.75)"/><path class="cls-4" d="M2354.77,1119.78H2082.6v.79h272.1C2354.72,1120.31,2354.75,1120,2354.77,1119.78Z" transform="translate(-575.91 -321.75)"/><path class="cls-4" d="M2354.5,1124.79H2083v.8h271.56C2354.5,1125.32,2354.5,1125.06,2354.5,1124.79Z" transform="translate(-575.91 -321.75)"/><path class="cls-4" d="M2354.7,1129.81H2083v.79h271.82C2354.75,1130.34,2354.72,1130.07,2354.7,1129.81Z" transform="translate(-575.91 -321.75)"/><path class="cls-4" d="M2355.36,1134.83H2083.49v.79h272Z" transform="translate(-575.91 -321.75)"/><path class="cls-4" d="M2356.5,1139.84H2085.76c.22.27.45.53.68.79h270.28Z" transform="translate(-575.91 -321.75)"/><path class="cls-7" d="M2141.7,1149l-169.24.39c-7.36,0-13.32-3.81-13.32-8.51v-1.74l-4-11.26a12.08,12.08,0,0,1,.3-8.94l3.69-8.66h0c0-4.79,6.07-8.67,13.56-8.67l169.55-.13-10,11.62-1.32,13.2.9,12.14Z" transform="translate(-575.91 -321.75)"/><path class="cls-4" d="M2358.17,1144.86H2134.65a4.2,4.2,0,0,0,.13.79h223.65C2358.34,1145.38,2358.26,1145.12,2358.17,1144.86Z" transform="translate(-575.91 -321.75)"/><path class="cls-5" d="M2148.52,1102.75h213.13a1.76,1.76,0,0,0,1.84-1.65h0a1.76,1.76,0,0,0-1.84-1.65H2147.21a15.23,15.23,0,0,0-5.53,1c-8.15,3.19-12.72,10.06-12.72,24.24,0,.31,0,.62,0,.92s0,.61,0,.92c0,14.19,4.58,21,12.73,24.18a15.37,15.37,0,0,0,5.51,1h214.45a1.76,1.76,0,0,0,1.84-1.65h0a1.76,1.76,0,0,0-1.84-1.65H2148.5a14.64,14.64,0,0,1-11-4.68c-3.19-3.6-4.91-9.06-4.91-17.29,0-.28,0-.56,0-.83s0-.55,0-.83c0-8,1.65-13.47,4.7-17.1A14.66,14.66,0,0,1,2148.52,1102.75Z" transform="translate(-575.91 -321.75)"/><path class="cls-5" d="M1975.17,1102.75H2210.7a1.87,1.87,0,0,0,2-1.65h0a1.87,1.87,0,0,0-2-1.65h-237a18.43,18.43,0,0,0-6.11,1c-9,3.19-14,10.06-14,24.24,0,.31,0,.62,0,.92s0,.61,0,.92c0,14.19,5,21,14.07,24.18a18.46,18.46,0,0,0,6.08,1h237a1.87,1.87,0,0,0,2-1.65h0a1.87,1.87,0,0,0-2-1.65H1975.15a17,17,0,0,1-12.11-4.68c-3.53-3.6-5.42-9.06-5.42-17.29,0-.28,0-.56,0-.83s0-.55,0-.83c0-8,1.81-13.47,5.19-17.1A17,17,0,0,1,1975.17,1102.75Z" transform="translate(-575.91 -321.75)"/><path class="cls-5" d="M1961.3,1106.22c7.21-3.34,11-5.26,30.49-5.26h33.72c-14.8,4.08-22.9,11.19-22.9,23.37,0,.34,0,.66,0,1s0,.65,0,1c0,12.17,8.09,19.24,22.85,23.3h-33.74c-20.09,0-22.64-1.8-29.85-5-8.7-3.84-13.37-9.65-13.37-18.42,0-.3,0-.59,0-.88s0-.59,0-.89C1948.5,1115.86,1953,1110.08,1961.3,1106.22Z" transform="translate(-575.91 -321.75)"/><path class="cls-5" d="M2088.74,1106.22c2.92-3.34,4.48-5.26,12.36-5.26h13.68c-6,4.08-9.29,11.19-9.29,23.37,0,.34,0,.66,0,1s0,.65,0,1c0,12.17,3.28,19.24,9.27,23.3h-13.68c-8.15,0-9.19-1.8-12.11-5-3.53-3.84-5.43-9.65-5.43-18.42,0-.3,0-.59,0-.88s0-.59,0-.89C2083.54,1115.86,2085.36,1110.08,2088.74,1106.22Z" transform="translate(-575.91 -321.75)"/><rect class="cls-8" x="1953.09" y="1151.74" width="444.98" height="48.94" rx="11.49" transform="translate(3775.25 2030.67) rotate(180)"/><rect class="cls-9" x="1782.34" y="829.99" width="14.99" height="48.94"/><rect class="cls-9" x="1743.5" y="829.99" width="14.99" height="48.94"/><path class="cls-6" d="M2186.83,933.76l-8.72,92.12a1.18,1.18,0,0,0,1.1,1.34h2.17a1.15,1.15,0,0,0,1.1-1.07l9-92.39Z" transform="translate(-575.91 -321.75)"/><path class="cls-6" d="M2229.1,933.76l8.72,92.12a1.17,1.17,0,0,1-1.1,1.34h-2.17a1.14,1.14,0,0,1-1.09-1.07l-9-92.39Z" transform="translate(-575.91 -321.75)"/><rect class="cls-6" x="1601.94" y="605.93" width="60.23" height="10.88" rx="4.66"/><path class="cls-10" d="M2140.64,861.37c-.88-.11-2.93.4-3.12.28s-5.42-2.2-5.72-2.25-2.43-.37-3.58-.54l-.52-.13a12.55,12.55,0,0,0-1.36.23l-1.51.3-.6.09c-.2,0-.23.31-.09.53a2.06,2.06,0,0,0,1.54.82l.93,0h0a9.57,9.57,0,0,0-1.49.45,1.16,1.16,0,0,0-.17,1.29c.15.46.77.57.77.57a.72.72,0,0,0-.19.91,1.11,1.11,0,0,0,.87.82s-.47.56-.31,1c.23.6.85.81.8.95-.21.53.17,1.38,1.61,1.53.35,0,7.45-.27,7.45-.27l1.63-.31,2.05-1.76S2141.51,861.48,2140.64,861.37Z" transform="translate(-575.91 -321.75)"/><path class="cls-11" d="M2126.62,862.86c3.09-.37,4.29-.64,4.36-.56s-4.35.68-4.43.69C2126.06,863,2126.55,862.87,2126.62,862.86Z" transform="translate(-575.91 -321.75)"/><path class="cls-11" d="M2127.07,860.62c3.09-.37,1.72-.28,1.78-.19a10.32,10.32,0,0,1-1.85.31C2126.51,860.77,2127,860.63,2127.07,860.62Z" transform="translate(-575.91 -321.75)"/><path class="cls-11" d="M2126.9,864.69c2.92-.34,4.23-.62,4.29-.54s-4.28.65-4.35.66C2126.37,864.83,2126.84,864.7,2126.9,864.69Z" transform="translate(-575.91 -321.75)"/><path class="cls-11" d="M2127.79,866.39c2.41-.13,3.18-.25,3.22-.19s-3.21.28-3.27.28C2127.36,866.48,2127.74,866.4,2127.79,866.39Z" transform="translate(-575.91 -321.75)"/><path class="cls-12" d="M2135.67,867.81l.65-8.57,38.3-5,8.16-17.21c2.9-5.4,4.42-9.26,8-14.22,3.43-4.12,5.54-6.33,10.21-6.64,2.51-.17,4.8.83,6.61,4.66,1.1,2.34.63,7.69.32,9.49-.6,3.52-5.09,19.63-24.17,40.57-1.63,1.78-10.41,1.43-19.94.55-12.81-.87-28.25-2.5-28.25-2.5Z" transform="translate(-575.91 -321.75)"/><rect class="cls-6" x="1550.77" y="539.53" width="14.73" height="2.33" rx="0.89"/><rect class="cls-13" x="1557.98" y="540.11" width="16.19" height="1.18" rx="0.45"/><path class="cls-13" d="M2134.65,862.45a.94.94,0,1,1-.94-1A.94.94,0,0,1,2134.65,862.45Z" transform="translate(-575.91 -321.75)"/><rect class="cls-6" x="2143.14" y="841.63" width="1.06" height="20.63" transform="translate(3370.29 -909.26) rotate(119.72)"/><rect class="cls-13" x="2134.81" y="838.83" width="1.87" height="17.19" rx="0.72" transform="translate(3354.54 -909.11) rotate(119.72)"/><rect class="cls-6" x="2139.34" y="825.56" width="9.05" height="14.9" transform="translate(53.84 -1220.08) rotate(27.6)"/><rect class="cls-13" x="2145.2" y="815.98" width="11.92" height="6.15" transform="translate(-147.1 2024.35) rotate(-62.4)"/><rect class="cls-13" x="2153.73" y="810.08" width="0.71" height="6.77" transform="translate(-140.57 2023.93) rotate(-62.4)"/><polygon class="cls-8" points="1575.42 506.75 1567.4 502.56 1569.77 501.16 1575.22 504.01 1575.42 506.75"/><rect class="cls-6" x="2134.27" y="836.66" width="1.24" height="4.32" rx="0.48" transform="translate(-661.05 1093.98) rotate(-36.02)"/><path class="cls-6" d="M2133.1,841.15l-1-1.4a.42.42,0,0,1,.07-.57l1.48-1.25,1.67,2.29-1.64,1A.43.43,0,0,1,2133.1,841.15Z" transform="translate(-575.91 -321.75)"/><rect class="cls-6" x="2140.07" y="840.48" width="1.24" height="4.32" rx="0.48" transform="translate(-198.84 1998.13) rotate(-61.44)"/><path class="cls-6" d="M2140.08,845.51l-1.52-.83a.4.4,0,0,1-.18-.54l.81-1.77,2.48,1.35-1,1.65A.42.42,0,0,1,2140.08,845.51Z" transform="translate(-575.91 -321.75)"/><path class="cls-6" d="M2146.85,843.57c-.68,1.28-4.27.4-8-1.74s-6.32-4.74-5.6-6c.46-.82,3.14,1.57,6.9,3.71S2147.35,842.61,2146.85,843.57Z" transform="translate(-575.91 -321.75)"/><rect class="cls-13" x="2132.17" y="838.97" width="15.68" height="1.5" rx="0.58" transform="translate(119.38 -1270.19) rotate(29.64)"/><path class="cls-6" d="M2161.87,867.34h-1.34c-.74-1-1.3-5.7-3.32-9-2.12-3.44-4-2.48-4.68-1.67-1.1,1.34-3.8,6.75-5.15,8.88a3.59,3.59,0,0,1-2.93,1.83l-17-.08a.74.74,0,0,0-.74.73v2.6a.74.74,0,0,0,.74.74h34.45a.73.73,0,0,0,.73-.74v-2.6A.73.73,0,0,0,2161.87,867.34Z" transform="translate(-575.91 -321.75)"/><path class="cls-6" d="M2150.7,830.64c5.75,5.62,7.79,13.83,4.9,24.26a55.07,55.07,0,0,1-2.3,6.07l4.18,1.29a38.59,38.59,0,0,0,1.39-3.83c3.71-12,2.12-22.41-5.12-30.69Z" transform="translate(-575.91 -321.75)"/><path class="cls-6" d="M2152,825.23h1.46a0,0,0,0,1,0,0v13.87a0,0,0,0,1,0,0H2152a4.84,4.84,0,0,1-4.84-4.84v-4.19A4.84,4.84,0,0,1,2152,825.23Z" transform="translate(3091.59 2246.64) rotate(-152.3)"/><path class="cls-13" d="M2154.67,829.16a3.76,3.76,0,1,1-1.6-5.08A3.76,3.76,0,0,1,2154.67,829.16Z" transform="translate(-575.91 -321.75)"/><path class="cls-14" d="M2153.66,828.64a2.63,2.63,0,1,1-1.11-3.55A2.64,2.64,0,0,1,2153.66,828.64Z" transform="translate(-575.91 -321.75)"/><path class="cls-8" d="M2155.75,857.94a1.61,1.61,0,1,1-1.61-1.61A1.62,1.62,0,0,1,2155.75,857.94Z" transform="translate(-575.91 -321.75)"/><path class="cls-10" d="M2161.71,1010.32v1.27c.25,1.86.86,4.6-1.65,6.94-.78.72-1.47,2-2.77,2.15l-9.19,3.08s-.94-.17-.54-.19,22.59.12,23.08,0a4.34,4.34,0,0,0,.84-2.91c-.25-1.69-1.59-2.57-.54-7.2l.35-2.06Z" transform="translate(-575.91 -321.75)"/><path class="cls-13" d="M2170.76,1018.45a.34.34,0,0,1,.48,0c.78.77,1.57,3,1.11,5.64-.26,1.44-1.78,3.11-5.29,2.35a24.69,24.69,0,0,0-11.07.48,17.7,17.7,0,0,1-8.42-.52c-1.29-.43-3.34-1.91-2.45-3.31.69-1.09,8.71-2.75,10.93-3.23s3.91-2.78,4.68-2.8.61.93,1.46,1.63c2.25,1.87,5.49,1.4,7.18.64A4.23,4.23,0,0,0,2170.76,1018.45Z" transform="translate(-575.91 -321.75)"/><path class="cls-15" d="M2221.76,907.79c-16.8,6.69-50.66,1.09-59.86,7.78-17.63,12.83-1.07,98.78-1.07,98.78h11.65a403.47,403.47,0,0,0,3.43-55.42c-.19-9-1.24-16.57-.49-21.13.35-2.11,7.81-1.79,9.74-2.58l35.46-10.4a9.1,9.1,0,0,0,1.14-17Z" transform="translate(-575.91 -321.75)"/><path class="cls-10" d="M2136,1010.18v1.27c.27,1.86.93,4.59-1.55,7-.76.74-1.43,2.06-2.73,2.19l-9.14,3.22s-1-.16-.55-.18,22.6-.23,23.08-.33a4.33,4.33,0,0,0,.8-2.92c-.28-1.69-1.63-2.55-.66-7.2l.32-2.06Z" transform="translate(-575.91 -321.75)"/><path class="cls-13" d="M2145.18,1018.18a.34.34,0,0,1,.48,0c.78.77,1.6,3,1.19,5.63-.24,1.44-1.73,3.13-5.25,2.43a24.79,24.79,0,0,0-11.06.65,17.68,17.68,0,0,1-8.43-.39c-1.3-.41-3.37-1.86-2.51-3.27.68-1.1,8.67-2.89,10.89-3.39s3.86-2.85,4.63-2.88.63.92,1.49,1.61c2.28,1.83,5.51,1.31,7.18.53A4.66,4.66,0,0,0,2145.18,1018.18Z" transform="translate(-575.91 -321.75)"/><path class="cls-13" d="M2166.7,941.5c-2,.66-4.25.59-4.82,2.67-2.84,10.32-7.92,41.39-15.63,70.18l-11.7-.36s-4-89,10.12-99.18c12.23-8.82,13.17-5.1,45.88-16.35,10-3.44,18.34-2.08,26.41-1.16l7.87-.06c7.93.81,8,2.56,9.07,12.11.89,8.21-.94,13.6-6.08,18.64Z" transform="translate(-575.91 -321.75)"/><path class="cls-10" d="M2178.86,812.61s7.23,8.91,7.28,14c0,3.68,16.77-12.15,16.77-12.15a36.41,36.41,0,0,1-13-21.48C2189.19,789.28,2178.86,812.61,2178.86,812.61Z" transform="translate(-575.91 -321.75)"/><path class="cls-11" d="M2186,793.58c3.18,8.08,4.17,14.47-.32,21.73a12,12,0,0,1-2.89,2.9c-1.56-2.35-3.94-5.6-3.94-5.6S2183.27,796.64,2186,793.58Z" transform="translate(-575.91 -321.75)"/><path class="cls-10" d="M2186.59,789.49c5,9.94,3.83,15.74-3.73,25.24-5.07,6.35-13.45-4.32-18.43-14.27s-5.58-21.7,2.37-23.49C2171.92,775.81,2181.61,779.54,2186.59,789.49Z" transform="translate(-575.91 -321.75)"/><path class="cls-13" d="M2194.83,786.29v.08a57.08,57.08,0,0,1-2.19,14h0a1.44,1.44,0,0,1-2.48.68,8.59,8.59,0,0,1-3.4-6.4,4.06,4.06,0,0,0-3-3.87c-1.44-.44-2.92.62-3.68,1.7a2.61,2.61,0,0,1-2.76,1.09c-2.8-.49-.5-6.06-5.15-4.23-5.52,2.18-14.22,5.1-17.4-.55-5.56-9.87-1.09-15,16.69-13.93a52.06,52.06,0,0,0,10.66-.5,11,11,0,0,1,12.28,8.55h0a17.43,17.43,0,0,1,.39,3.06Z" transform="translate(-575.91 -321.75)"/><path class="cls-4" d="M2184.41,900.41c1.28-.68,1.12-2.7,1.12-4.08l-6.24-44.79a12.38,12.38,0,0,1-.62-3.25,37.65,37.65,0,0,1,4.08-18.4h0c4.05-4.95,10.86-17.35,18.31-17.84l0-1.3c2.08-.09,4.43,1.27,5.82,2.29,3.68,2.72,11.06,15.67,13.22,21.3a267.93,267.93,0,0,1,11,38.87c5.29,27.66,10.75,54.47-13.36,58.66l-50.85,9.22a10.77,10.77,0,0,1-10.29-3.83l-8.85-18.83a2.61,2.61,0,0,1,1.37-3.53Z" transform="translate(-575.91 -321.75)"/><path class="cls-14" d="M2179.28,851.56c-2.18-6.28-.53-16.94,3.22-24.58a21.62,21.62,0,0,1,1.05-1.92c.66-1.06,1.39-2.08,2.15-3.07l3.26-4.22c4.2-5.7,5.51-6.83,5.51-6.83l4-5c.46-.35,1.29,1.07,1.6,1.5.56.77,3.23,3.69,3.23,3.69L2185.64,830l4.21-1-2.13,2.54C2183,837.26,2179.28,851.56,2179.28,851.56Z" transform="translate(-575.91 -321.75)"/><path class="cls-10" d="M2143.44,863.33c-.87-.11-2.93.39-3.11.27s-5.43-2.19-5.73-2.25l-3.58-.54-.51-.13c-.05,0-.7.11-1.37.24l-1.51.3c-.22,0-.48.06-.59.09s-.24.3-.09.52a2.05,2.05,0,0,0,1.54.83h.92a8.72,8.72,0,0,0-1.49.46,1.15,1.15,0,0,0-.16,1.29c.14.45.76.56.76.56a.74.74,0,0,0-.19.92,1.11,1.11,0,0,0,.87.81s-.47.57-.31,1c.24.6.86.82.8,1-.21.53.17,1.37,1.61,1.52.35,0,7.45-.26,7.45-.26l1.64-.31,2-1.77S2144.32,863.43,2143.44,863.33Z" transform="translate(-575.91 -321.75)"/><path class="cls-11" d="M2129.42,864.82c3.1-.37,4.3-.65,4.36-.56s-4.34.68-4.43.68C2128.87,865,2129.36,864.83,2129.42,864.82Z" transform="translate(-575.91 -321.75)"/><path class="cls-11" d="M2129.87,862.57c3.1-.37,1.72-.27,1.79-.18a12.41,12.41,0,0,1-1.86.31C2129.31,862.73,2129.81,862.58,2129.87,862.57Z" transform="translate(-575.91 -321.75)"/><path class="cls-11" d="M2129.7,866.64c2.93-.33,4.23-.62,4.3-.54s-4.28.66-4.36.66C2129.18,866.79,2129.64,866.65,2129.7,866.64Z" transform="translate(-575.91 -321.75)"/><path class="cls-11" d="M2130.6,868.35c2.41-.13,3.17-.26,3.22-.19s-3.22.28-3.28.28C2130.16,868.44,2130.55,868.35,2130.6,868.35Z" transform="translate(-575.91 -321.75)"/><path class="cls-8" d="M2138.47,869.77l.65-8.58,38.31-5,8.15-17.22c2.9-5.39,4.42-9.25,8-14.22,3.43-4.11,5.54-6.32,10.21-6.63,2.52-.17,4.81.82,6.61,4.66,1.1,2.33.64,7.68.33,9.48-.61,3.53-4.47,19.79-24.44,39.89-1.18,1.2-9.42.57-19.75,0-12.82-.71-28.18-1.27-28.18-1.27Z" transform="translate(-575.91 -321.75)"/><path id="Tablepart2" class="cls-1" d="M2177.93,1027.22h-2.23a1.16,1.16,0,0,1-1.13-1l-15.66-149.35a1.18,1.18,0,0,1,.91-1.29l2.62-.56a1.16,1.16,0,0,1,1.36,1l15.26,149.9A1.17,1.17,0,0,1,2177.93,1027.22Z" transform="translate(-575.91 -321.75)"/><polygon class="cls-1" points="1583.65 561.01 1588.61 561.01 1588.24 557.52 1583.29 557.57 1583.65 561.01"/><path id="Tablepart2-2" data-name="Tablepart2" class="cls-1" d="M2032.56,1027.22l2.23,0a1.16,1.16,0,0,0,1.14-1l16.68-148.4a1.15,1.15,0,0,0-.89-1.28l-2.62-.53a1.16,1.16,0,0,0-1.37,1l-16.29,149A1.14,1.14,0,0,0,2032.56,1027.22Z" transform="translate(-575.91 -321.75)"/><polygon class="cls-1" points="1471.16 561.01 1476.12 561.01 1476.53 557.51 1471.53 557.51 1471.16 561.01"/><rect class="cls-1" x="1456.28" y="549.74" width="147.17" height="9.24" rx="3.72"/><path class="cls-6" d="M2059.86,858s2.7-12.08-2.3-23.13c-4.71-10.43-11.35-12.78-11.35-12.78l6.4,16.51c1.37,4.31,2.9,7,4.67,12Z" transform="translate(-575.91 -321.75)"/><path class="cls-14" d="M2059.7,857h0a.11.11,0,0,0,.07-.13h0c-1.77-12.1-6.11-22.52-12.28-33.11l-.82-1.36a.09.09,0,0,0-.12-.07h0a.1.1,0,0,0-.06.13l.81,1.37c6.18,10.6,10.52,21,12.29,33.12h0A.09.09,0,0,0,2059.7,857Z" transform="translate(-575.91 -321.75)"/><path class="cls-6" d="M2061.56,858.31s-2.69-12.09,2.3-23.14c4.71-10.43,11-14,11-14l-5.16,17.74a37.9,37.9,0,0,1-4.67,11.63Z" transform="translate(-575.91 -321.75)"/><path class="cls-14" d="M2061.72,857.32h0a.1.1,0,0,1-.06-.13h0a95.79,95.79,0,0,1,12-34.35l.55-.94a.1.1,0,0,1,.13-.06h0a.1.1,0,0,1,.06.13l-.55.95a95.6,95.6,0,0,0-12,34.35h0A.1.1,0,0,1,2061.72,857.32Z" transform="translate(-575.91 -321.75)"/><path class="cls-4" d="M2060.17,855.69s5.36-14.6,3-24.62c-2.86-12.15-5.8-14.9-5.8-14.9s-1,15.15-1,21.73S2060.17,855.69,2060.17,855.69Z" transform="translate(-575.91 -321.75)"/><path class="cls-14" d="M2060.13,855.21h0a.09.09,0,0,1-.09-.09v-.07a146.9,146.9,0,0,0-2.38-37.9v0a.1.1,0,0,1,.1-.09h0a.09.09,0,0,1,.09.09h0a146.83,146.83,0,0,1,2.39,37.89v.11A.09.09,0,0,1,2060.13,855.21Z" transform="translate(-575.91 -321.75)"/><path class="cls-4" d="M2060.4,857.84a28.81,28.81,0,0,1-10.33-9.47c-2.87-4.39-6.58-15.75-7-16.51.8.39,8.76,7.22,12.47,13.16C2060.37,852.66,2060.4,857.84,2060.4,857.84Z" transform="translate(-575.91 -321.75)"/><path class="cls-14" d="M2060.24,857.57h0a.1.1,0,0,1-.12,0l-16.53-25a.09.09,0,0,1,0-.12h0a.09.09,0,0,1,.12.05l16.53,25A.08.08,0,0,1,2060.24,857.57Z" transform="translate(-575.91 -321.75)"/><path class="cls-4" d="M2062.07,857.58a44.18,44.18,0,0,0,8.68-10.23c2.8-4.44,7-13.36,7.31-14.13-.79.41-7.8,5.46-11.41,11.46C2062,852.41,2062.07,857.58,2062.07,857.58Z" transform="translate(-575.91 -321.75)"/><path class="cls-14" d="M2062.21,857.19h0a.08.08,0,0,0,.12,0l1.23-2.39a115.19,115.19,0,0,1,14.11-21l.06-.07a.09.09,0,0,0-.05-.12h0c-.05,0-.11,0-.12,0h0a115.89,115.89,0,0,0-14.15,21l-1.26,2.45A.09.09,0,0,0,2062.21,857.19Z" transform="translate(-575.91 -321.75)"/><polygon class="cls-7" points="1477.3 549.74 1492.06 549.74 1494.83 531.49 1474.54 531.49 1477.3 549.74"/><rect class="cls-4" x="1518.39" y="524.59" width="4.3" height="0.48" rx="0.21"/><path class="cls-16" d="M2098.25,868.87V846.7h-3.6v22.21h0a1.8,1.8,0,0,0,3.6,0h0Z" transform="translate(-575.91 -321.75)"/><path class="cls-7" d="M2098.12,859.88h-3.47v9h0a1.8,1.8,0,0,0,3.6,0h0v-9Z" transform="translate(-575.91 -321.75)"/><rect class="cls-16" x="1519.14" y="525.9" width="0.39" height="20.44" rx="0.17"/><rect class="cls-4" x="1531.14" y="524.59" width="4.3" height="0.48" rx="0.21"/><path class="cls-16" d="M2111,868.87V846.7h-3.6v22.21h0a1.8,1.8,0,0,0,3.6,0h0Z" transform="translate(-575.91 -321.75)"/><path class="cls-7" d="M2110.86,859.88h-3.46v9h0a1.8,1.8,0,0,0,3.6,0h0v-9Z" transform="translate(-575.91 -321.75)"/><rect class="cls-16" x="1531.89" y="525.9" width="0.39" height="20.44" rx="0.17"/><rect class="cls-4" x="1524.77" y="524.59" width="4.3" height="0.48" rx="0.21"/><path class="cls-16" d="M2104.63,868.87V846.7H2101v22.21h0a1.81,1.81,0,0,0,3.61,0h0Z" transform="translate(-575.91 -321.75)"/><path class="cls-17" d="M2101,852.41v16.5h0a1.81,1.81,0,0,0,3.61,0h0v-16.5Z" transform="translate(-575.91 -321.75)"/><rect class="cls-16" x="1525.52" y="525.72" width="0.39" height="20.44" rx="0.17"/><rect class="cls-4" x="1512.02" y="524.59" width="4.3" height="0.48" rx="0.21"/><path class="cls-16" d="M2091.88,868.87V846.7h-3.6v22.21h0a1.8,1.8,0,0,0,3.6,0h0Z" transform="translate(-575.91 -321.75)"/><path class="cls-6" d="M2088.28,855v14h0a1.8,1.8,0,0,0,3.6,0h0V855Z" transform="translate(-575.91 -321.75)"/><rect class="cls-16" x="1512.88" y="525.9" width="0.39" height="20.44" rx="0.17"/><rect class="cls-13" x="1507.51" y="534.69" width="0.53" height="15.05"/><rect class="cls-13" x="1539.42" y="534.69" width="0.53" height="15.05"/><rect class="cls-13" x="1507.82" y="535.96" width="31.85" height="0.3"/><rect class="cls-13" x="1507.8" y="541.41" width="31.85" height="0.3"/><rect class="cls-13" x="1507.64" y="546.85" width="32.17" height="0.3"/><path class="cls-9" d="M2357.09,1270.2h0a3.53,3.53,0,0,1-4.22-2.52l-93.61-304.36a3.35,3.35,0,0,1,2.12-4.31h0a3.54,3.54,0,0,1,4.21,2.52l93.61,304.37A3.33,3.33,0,0,1,2357.09,1270.2Z" transform="translate(-575.91 -321.75)"/><path class="cls-9" d="M2414.93,1270.2h0a3.53,3.53,0,0,1-4.22-2.52L2317.1,963.31a3.34,3.34,0,0,1,2.11-4.31h0a3.55,3.55,0,0,1,4.22,2.52L2417,1265.9A3.34,3.34,0,0,1,2414.93,1270.2Z" transform="translate(-575.91 -321.75)"/><rect class="cls-9" x="1701.18" y="686.55" width="58.7" height="3.98"/><rect class="cls-9" x="1689.22" y="653.13" width="57.36" height="3.98"/><rect class="cls-9" x="1712.95" y="719.96" width="58.7" height="3.98"/><rect class="cls-9" x="1722.65" y="753.38" width="58.7" height="3.98"/><rect class="cls-9" x="1733.21" y="786.79" width="58.7" height="3.98"/><rect class="cls-9" x="1742.74" y="820.21" width="58.7" height="3.98"/><rect class="cls-9" x="1753.65" y="853.62" width="58.7" height="3.98"/><rect class="cls-9" x="1764.56" y="887.04" width="58.7" height="3.98"/><rect class="cls-9" x="1771.83" y="920.45" width="58.7" height="3.98"/><path class="cls-10" d="M2386.79,1193.33l.09,1.34c.38,2,1.66,4.56-.87,7.13-1.7,1.73-6.1,3.09-7.42,3.32l1.92.54s1.1.94,1.5.88,14.32.18,14.8,0a3.87,3.87,0,0,0,1.22-2.94,18.7,18.7,0,0,1-.27-8.46l-.25-2.07Z" transform="translate(-575.91 -321.75)"/><path class="cls-13" d="M2397.77,1202.46c-3.22.07-4.36.94-7.47,1.8-1.07.3-3.22,1.09-4.05,1.23-2.59.45-3.22.69-5,.18-.52-.15-.86-.73-.52-1.12l0,0s-.05,0-.08,0c-1.74.5-4.46,1-7,1.53,0,0-2.71.64-3.48,1.65s-.07,2.76,6.79,2.36c3.36-.2,6.12-1.22,11.19-.26,3.85.72,8,.6,9.4-.37.74-.51,1.45-2.75.74-5.61a4.6,4.6,0,0,0-.52-1.27Z" transform="translate(-575.91 -321.75)"/><path class="cls-13" d="M2402,1045.62s-5.19,63.84-5.08,65.21c3.23,39.3,5.3,67.3,1.93,87.86l-13.06,0s-10.17-53.92-14.14-85.21c-2-16-1.47-65.92-1.77-76.1-.46-15.48,4.45-13.53,4.45-13.53l15.94-2.16Z" transform="translate(-575.91 -321.75)"/><path class="cls-10" d="M2353.36,1193.33l.09,1.34c.38,2,1.65,4.56-.88,7.13-1.7,1.73-6.1,3.09-7.41,3.32l1.92.54s1.09.94,1.5.88,14.31.18,14.8,0a3.87,3.87,0,0,0,1.22-2.94,18.5,18.5,0,0,1-.28-8.46l-.25-2.07Z" transform="translate(-575.91 -321.75)"/><path class="cls-13" d="M2364.33,1202.46c-3.21.07-4.35.94-7.46,1.8-1.08.3-3.22,1.09-4.06,1.23-2.59.45-3.21.69-5,.18-.51-.15-.85-.73-.51-1.12l0,0s-.05,0-.09,0c-1.74.5-4.45,1-7,1.53,0,0-2.71.64-3.47,1.65s-.08,2.76,6.78,2.36c3.36-.2,6.12-1.22,11.2-.26,3.84.72,8,.6,9.4-.37.74-.51,1.44-2.75.73-5.61a4.28,4.28,0,0,0-.51-1.27Z" transform="translate(-575.91 -321.75)"/><path class="cls-13" d="M2380.7,1066.08s-12.4,43.38-12.37,44.75c.89,35.8.76,67.32-2.6,87.86h-13.06s-7.85-54.77-9.92-87.86c-1-16.09,5.68-64.9,6.54-75,1.32-15.47,2.11-11.41,2.11-11.41l23.51-1.41Z" transform="translate(-575.91 -321.75)"/><path class="cls-10" d="M2355.4,946.36c.24-.28-1.85-3.62-1.93-4.46a71.89,71.89,0,0,0-2-8.21.38.38,0,0,1,.22-.45l12.61-7.91c.36,1,5.24,9.18,7.33,11.07,1.8,1.61,5,1.06,6.13,1.58Z" transform="translate(-575.91 -321.75)"/><path class="cls-10" d="M2334.76,918.86c3.74,13.45,9.81,19,16.1,17.37,5.36-1.35,15.15-12.6,12.46-23.26s-12-16.81-19.92-15.2C2331.92,900.12,2332.39,910.31,2334.76,918.86Z" transform="translate(-575.91 -321.75)"/><path class="cls-13" d="M2335.58,897.83a22.24,22.24,0,0,1,15.05-5.1,15.35,15.35,0,0,1,5.29,1.29c.27-.42,2.68-4.63,4.82-6.14,6.88-4.87,15-.73,18.85,7.1a11.37,11.37,0,0,1-3.68,14.52,13.42,13.42,0,0,1-6.9,2.29,14.44,14.44,0,0,1-.82,8.78c-2,4.59-3.59,7.75-8.47,8.56-3.83.64-9.92-2.23-10.45-7.15-.43-3.91-.06-8.57-4.3-5.87-2.15,1.37-3,1.41-4.33-.85-1.8-3.06-7.75-.89-10.13-4.58C2328.46,907.52,2330.1,902.88,2335.58,897.83Z" transform="translate(-575.91 -321.75)"/><path class="cls-17" d="M2375.76,937.39s13.43,1.51,17.12,5.83c10.54,12.35,11.28,46.62,10.19,52.41s-39.46,16.17-39.46,16.17l1.44-11.19L2390,989.22l-6.74-22.46Z" transform="translate(-575.91 -321.75)"/><path class="cls-10" d="M2357.7,1007.7s-5.81,1-6.29,1.17-3.86,2.36-4.37,2.55-.9.17-1.06-.12a1.24,1.24,0,0,1-.1-.61c-.16.12-.73.54-1.08.49a.7.7,0,0,1-.54-.54,1.42,1.42,0,0,1,.22-.82.87.87,0,0,1-.65.21.69.69,0,0,1-.64-.75c.09-.55.85-1.15.77-1.23a.88.88,0,0,1,0-1.26c.51-.54,2.36-2.71,2.53-2.83a41.23,41.23,0,0,1,4.56-1.81c.32-.12,7,.38,7,.38Z" transform="translate(-575.91 -321.75)"/><path class="cls-11" d="M2345.71,1010.17s1.28-1.2,2.53-2.24a20.25,20.25,0,0,1,2.3-1.58c.47-.3.38-.1.16.08-.5.41-1.55,1-2.35,1.6-1.24,1-2.36,2.12-2.52,2.24s-.19.13-.22.09S2345.71,1010.17,2345.71,1010.17Z" transform="translate(-575.91 -321.75)"/><path class="cls-11" d="M2343.92,1007.5a19,19,0,0,1,2.31-2.36,10.33,10.33,0,0,1,2.52-1.38c.5-.23.41,0,.16.08a12.47,12.47,0,0,0-2.58,1.41,20.91,20.91,0,0,0-2.29,2.36c-.19.13-.2.13-.22.08S2343.92,1007.5,2343.92,1007.5Z" transform="translate(-575.91 -321.75)"/><path class="cls-11" d="M2344.38,1009.34s1.12-1.32,2.19-2.54a9.83,9.83,0,0,1,2.3-1.71c.57-.37.45-.11.17.06a10.5,10.5,0,0,0-2.35,1.74c-1.07,1.19-2,2.4-2.18,2.53s-.17.16-.21.12S2344.38,1009.34,2344.38,1009.34Z" transform="translate(-575.91 -321.75)"/><path class="cls-4" d="M2340.31,946.33l12.67-5.78,9.19-.73,5.81-2.33,5.36-1.74,5.52,1.69h0l5,1.48.72.22a5.72,5.72,0,0,1,3.7,3.48c3.16,8.54,4.91,13.75,6.54,23.66a136.23,136.23,0,0,1,.39,20.18c.07,8.31-.36,11.49-.25,17.34l1.06,7.54c2.78,10.43,13.6,37.3,9.29,86.46a3.93,3.93,0,0,1-3.92,3.58H2356l-12.66,0c-3.09,0-1.82-9.08-1.38-13.53l1.6-19c2.89-33.92,5.86-49.79,6.17-54.82.88-14.38-1.74-32.75-2.55-37.81-2.8-17.38-6.62-17-7.63-21.64Z" transform="translate(-575.91 -321.75)"/><path class="cls-14" d="M2370.72,935.27a9.8,9.8,0,0,1,3.35.58c.31,1.77-4.08,4.55-10,6a31.11,31.11,0,0,1-14.2.16l3.19-2.52,2.19,0a32,32,0,0,0,15.33-4.2l.15-.05Z" transform="translate(-575.91 -321.75)"/><path class="cls-10" d="M2302.75,1009.58s-5.84.79-6.32.95-3.94,2.23-4.46,2.41-.9.14-1-.16a1.42,1.42,0,0,1-.08-.62c-.16.12-.75.52-1.09.46a.69.69,0,0,1-.52-.56,1.39,1.39,0,0,1,.24-.81.9.9,0,0,1-.66.19.7.7,0,0,1-.61-.78c.11-.54.89-1.12.81-1.2a.9.9,0,0,1,0-1.26c.53-.52,2.45-2.63,2.63-2.75a44,44,0,0,1,4.61-1.65c.33-.11,6.95.62,6.95.62Z" transform="translate(-575.91 -321.75)"/><path class="cls-11" d="M2290.69,1011.63s1.32-1.14,2.61-2.15a20,20,0,0,1,2.35-1.5c.47-.28.38-.08.15.09-.52.39-1.58.89-2.4,1.52-1.27,1-2.43,2-2.59,2.15s-.2.12-.23.08S2290.69,1011.63,2290.69,1011.63Z" transform="translate(-575.91 -321.75)"/><path class="cls-11" d="M2289,1008.91a18.87,18.87,0,0,1,2.39-2.28,9.83,9.83,0,0,1,2.56-1.29c.51-.22.42,0,.16.08a12.6,12.6,0,0,0-2.62,1.32,23.32,23.32,0,0,0-2.38,2.28c-.19.13-.19.12-.22.08S2289,1008.91,2289,1008.91Z" transform="translate(-575.91 -321.75)"/><path class="cls-11" d="M2289.38,1010.76s1.17-1.28,2.29-2.46a9.42,9.42,0,0,1,2.35-1.63c.58-.35.45-.1.16.06a10.54,10.54,0,0,0-2.4,1.66c-1.11,1.15-2.12,2.33-2.27,2.46s-.17.15-.2.11S2289.38,1010.76,2289.38,1010.76Z" transform="translate(-575.91 -321.75)"/><path class="cls-17" d="M2339.66,946.64c-1.83,1.16-3.9,4-4.31,8.6s-.85,13.6-.84,20.87a54.74,54.74,0,0,1-2.78,16.39c-.29.7-29.88,9.24-29.88,9.24l.63,9.58c2.86,0,35.45-2.88,43.15-8.26,4-2.78,6.44-28.64,5.72-35.92-1.08-10.91-2.68-14.61-3.64-16.49-2-3.82-4.18-4.42-5.95-4.52A3.12,3.12,0,0,0,2339.66,946.64Z" transform="translate(-575.91 -321.75)"/><path class="cls-1" d="M1971,1276.52V1132.59c0-77.84-25.68-140.94-57.35-140.94H1741.19c-31.68,0-57.35,63.1-57.35,140.94v141.3Z" transform="translate(-575.91 -321.75)"/><path class="cls-18" d="M1488.21,1227.92s-31.3,10-58,3.12c-14.43-3.73-47.57,15.54-56.88,24a6.92,6.92,0,0,0-2.45,3.45c-.34,1.62-.34,2.86,3.21,3.62,4.69,1,4.94-.25,6-.44a1.7,1.7,0,0,1,1.85.59,4.65,4.65,0,0,0,3.64,1.57c2.56-.33,13.27-6.48,14.45-5,1.69,2.15,3.32,6.07,6.56,6.34s24.16-5.1,29.46-6c7.72-1.29,15.06,3,34.32,1.27,20.07-1.8,33.6-10,33.6-10l-9.69-16.36Z" transform="translate(-575.91 -321.75)"/><path class="cls-17" d="M1712,943.74c-8.46,7.09-20.31,17.66-24.21,32.14A1039.64,1039.64,0,0,0,1665.88,1080c-6,37.43-21.23,92.14-23.52,97.4-1.51,3.47-167,46.41-167,46.41l.92,41.36c14.85,0,208.12-9,225.12-18.46,21.8-12.18,57-157.42,60.92-193.54,5.86-54.13-.48-75.37-3.42-85.46-6-20.56,5.51-54.37.84-52.85C1758.24,915.33,1714.55,941.63,1712,943.74Z" transform="translate(-575.91 -321.75)"/><path class="cls-10" d="M1777.79,860.09a1.71,1.71,0,0,0-1.46,1.78c.42,6.17,1.9,29.67.85,38-.48,3.79-4.63,5-6.32,5.3a1.73,1.73,0,0,0-1.13.76l-13.52,20.63a1.45,1.45,0,0,0-.23.54c-.7,3.08-6.77,30-6.41,31.68s-4.19,13.64,1.52,17.6,19.43,14.36,21.71,16.88,49.12,10.77,56.36,10.77,33.13-2.87,35.8-3.59c2.43-.66,16.34-6.12,18.7-7.05a1.83,1.83,0,0,0,.6-.39c1.74-1.76,11.74-11.91,13.83-15.19,2.28-3.59,19.8-14.72,22.47-19,2.32-3.76,7-13.54,8.11-16a1.66,1.66,0,0,0,.1-1.14l-2.67-9.45a1.73,1.73,0,0,0-.92-1.08c-5.13-2.42-37.27-16.14-42.5-19.84-4.87-3.45-20.34-11.1-26.9-19.94s-6.33-34.35-6.13-41.84a1.75,1.75,0,0,0-2.1-1.71Z" transform="translate(-575.91 -321.75)"/><path class="cls-11" d="M1840.68,856c0-2.82,3.31-5.41,3.35-7,0-1.08,6-8.63,4.84-8.43l-71,24.9a1.71,1.71,0,0,0-1.46,1.78c.32,4.75,1.75,21.06,1,30.91a19.12,19.12,0,0,0,5.77.28C1799.6,897.61,1819.34,879.63,1840.68,856Z" transform="translate(-575.91 -321.75)"/><path class="cls-10" d="M1736.12,784.06c-5.41,64.87,11.36,104.08,41,107,25.24,2.46,86.07-37,91.51-88.06s-24.81-92.57-61.53-97.91C1753.87,697.32,1739.57,742.81,1736.12,784.06Z" transform="translate(-575.91 -321.75)"/><path class="cls-13" d="M1849.16,717.39c-14.89-3.35-24.54-17.22-38.09-27.33-32.39-24.17-60.1-20.89-76,2-19.28,27.87-3.23,70.16,4.05,70.32,0,0,9.21-12.58,40.6-7,26.92,4.79,28.52,9.36,36.49,22.85,4.53,7.65,10.65,20.25,14.47,24.55l0,.06a8.25,8.25,0,0,0,10.55,1.28l10.53-5.84c4.19-2.43,5.63-3.1,8.1-1.89,9.71,4.76,6.13,20.55-3,30.28a32.28,32.28,0,0,0-9.11,19.88v.17c-.15,2.42.34,5.16,4.27,3.47a9.89,9.89,0,0,0,2.47-1.58l1.84-1.58a44,44,0,0,0,5.55-6.45c.78-1,12.71-18.72,13.25-19.6,12.4-20.13,7.65-12.5,11.44-19.78,2-3.81,4.53-9.33,5.86-12.79,3.67-9.56,5.08-20.49,2.73-33.38-3-16.73-10.5-25.37-20.32-31a15.6,15.6,0,0,0-1.38-.77c-6.84-2.92-11.23-4.49-17.24-5.12Z" transform="translate(-575.91 -321.75)"/><path class="cls-9" d="M1907.47,1266.89l-3.41-28.49a2.09,2.09,0,0,1,0-.25l10-304.39a1.67,1.67,0,0,0-1-1.57l-21.88-10.55a1.81,1.81,0,0,0-2.45.87c-9.64,22.26-27,47.69-90.24,46.6-25.62-.44-49.28-8.83-49.94-32.73a1.77,1.77,0,0,0-2.55-1.47l-20.31,9.49a1.72,1.72,0,0,0-1,1.38l-26.36,274.4-3.73,60Z" transform="translate(-575.91 -321.75)"/><path class="cls-4" d="M1724.66,1276.52l18.56-147.17,16.47-215.79-.25.07-.91.26a230.32,230.32,0,0,1-29.79,23.75c-10.79,7.2-17.94,27.25-23,48.84a305.3,305.3,0,0,0-7.51,56.36l-5.09,117.89-2.59,81.47c-.09,6.36.58,16.18,1.14,25.94.14,2.49.25,5.34.25,8.38Z" transform="translate(-575.91 -321.75)"/><path class="cls-4" d="M1938.84,1276.52c-6.3-23.07-13.87-39.32-14.6-42.17-6.86-26.73-.32-124.23,4.69-170.43,7.5-69.14,46.34-88.28,46.34-111.73,0-1-3.61-4.28-8.82-7.27a187.33,187.33,0,0,0-38.36-16.47L1893,917.73a1.79,1.79,0,0,0-2.23,1.08L1803.15,1129c0,.18,0,1.55,0,1.72l-3.63,145.76Z" transform="translate(-575.91 -321.75)"/><path class="cls-14" d="M1777.18,899.87h0a4,4,0,0,1-1.29,2.84c-4.44,5.12-13.76,16.37-19.57,64.72-7.44,61.93-9,145.07-13.12,163.33l-25-151.51,21.45-8.75-19.48-12.57h0c11.26-20.69,32.78-51.67,56.8-58Z" transform="translate(-575.91 -321.75)"/><path class="cls-14" d="M1866.24,900.89h0c4.71,4.06,7.34,10.05,8.36,16,1.34,7.82,6.56,22.57-2.68,46.77-13,34.19-28.59,65.86-40.76,97.17-13,33.32-28.33,66.91-28,68.22L1912.81,989.4l-1.67-.95-21.69-12.34,28-8.58-1.34-7.22h0c-6.08-22.5-10.88-52.6-44.84-58.44Z" transform="translate(-575.91 -321.75)"/><path class="cls-18" d="M1695.41,1224.77s-31.59,9.15-58,1.55c-14.31-4.12-48,14.25-57.56,22.43a6.94,6.94,0,0,0-2.56,3.39c-.38,1.61-.41,2.85,3.11,3.71,4.65,1.14,4.94-.12,6-.28a1.7,1.7,0,0,1,1.83.63,4.65,4.65,0,0,0,3.59,1.68c2.57-.27,13.46-6.12,14.59-4.6,1.63,2.19,3.14,6.16,6.37,6.51s24.31-4.45,29.63-5.19c7.75-1.09,15,3.4,34.27,2.2,20.11-1.26,33.88-9.09,33.88-9.09l-9.2-16.61Z" transform="translate(-575.91 -321.75)"/><path class="cls-17" d="M1948,943.78c-10.64,3.49-20.85,17.59-25.61,28-7.88,17.31-25.82,68.61-37.48,107.86-10.81,36.43-17.38,88.46-19.83,93.66-1.61,3.42-181.27,45.82-181.27,45.82l.08,47.87c14.84.4,215.62-9.91,232.9-19,22.15-11.58,64.35-148.2,69.33-184.2,7.47-54,5.26-74.09,1.7-89-5-20.8-17.93-30.09-27.94-32.47C1955.47,941.36,1950.26,943.05,1948,943.78Z" transform="translate(-575.91 -321.75)"/><g id="Notebook"><path class="cls-19" d="M1417.5,1174.08v0Z" transform="translate(-575.91 -321.75)"/></g><path class="cls-13" d="M1243.24,1270.32h257.12l-83.06-254.89a48.43,48.43,0,0,0-46-33.42H1182.94a33.06,33.06,0,0,0-31.43,43.32l75.8,232.45C1229.77,1265.31,1236.13,1270.32,1243.24,1270.32Z" transform="translate(-575.91 -321.75)"/><path class="cls-9" d="M1230.22,1270.32h257.12l-83.06-254.89a48.44,48.44,0,0,0-46-33.42H1169.92a33.07,33.07,0,0,0-31.44,43.32l75.81,232.45C1216.74,1265.31,1223.11,1270.32,1230.22,1270.32Z" transform="translate(-575.91 -321.75)"/><path class="cls-13" d="M905.29,929.76h194.37a0,0,0,0,1,0,0v13.07a5.74,5.74,0,0,1-5.74,5.74H911a5.74,5.74,0,0,1-5.74-5.74V929.76A0,0,0,0,1,905.29,929.76Z"/><path class="cls-13" d="M636.34,929.76H928.5a0,0,0,0,1,0,0v18.81a0,0,0,0,1,0,0H642.09a5.74,5.74,0,0,1-5.74-5.74V929.76A0,0,0,0,1,636.34,929.76Z"/><rect class="cls-20" y="948.08" width="2048.19" height="12.39" rx="5.69"/><rect class="cls-1" x="146.63" y="846.02" width="369.6" height="102.55"/><rect class="cls-1" x="241.38" y="766.89" width="274.85" height="79.12"/><rect class="cls-1" x="336.64" y="687.77" width="179.59" height="79.12"/><path class="cls-13" d="M1015.94,1012.27a29.93,29.93,0,0,1-4.76-30.32,38.81,38.81,0,0,0,2.27-14.37C1012.62,951.75,999.6,953,999.6,953s-24-10.54-28.47,11.94c-1.82,9.08,1.66,14.7,1.23,22.91-.53,10.16-.21,21.31-9.61,24.26Z" transform="translate(-575.91 -321.75)"/><path class="cls-10" d="M412.2,679.75h6.44A15.36,15.36,0,0,1,434,695.12v2.81a0,0,0,0,1,0,0H402.2a0,0,0,0,1,0,0v-8.17A10,10,0,0,1,412.2,679.75Z"/><path class="cls-10" d="M985.08,991.29s.92,5.08-3.93,16.72,23.78,6.19,23.78,6.19,3.64-6.18-.15-9.16c-1.67-1.31-3.13-11.09-3-13.59C1001.9,986.57,985.08,991.29,985.08,991.29Z" transform="translate(-575.91 -321.75)"/><path class="cls-11" d="M1001.73,992c-.21-4.87-16.65-.16-16.65-.16a7.71,7.71,0,0,1,0,2.31c2.61,2.8,5.52,4.51,7.79,4.51,2.94,0,6.25-2.08,9-5.4C1001.78,992.71,1001.75,992.31,1001.73,992Z" transform="translate(-575.91 -321.75)"/><path class="cls-10" d="M1007.2,974.82c.25,11.85-7.26,22.35-14.08,22.48-5.81.12-13.94-9.62-14.19-21.47s4.79-21.84,13.29-22S1007,963,1007.2,974.82Z" transform="translate(-575.91 -321.75)"/><path class="cls-10" d="M981,977.28c0,3.16-.73,4.14-1.63,4.14s-1.64-1.85-1.64-4.14.73-4.14,1.64-4.14S981,975,981,977.28Z" transform="translate(-575.91 -321.75)"/><path class="cls-10" d="M1008,977.12c0,3.15-.73,4.13-1.64,4.13s-1.63-1.85-1.63-4.13.73-4.14,1.63-4.14S1008,974.83,1008,977.12Z" transform="translate(-575.91 -321.75)"/><rect class="cls-4" x="403.65" y="802.65" width="30.52" height="48.86"/><path class="cls-10" d="M974,1254.43l.15,1.27c.47,1.82,1.42,4.47-.84,7.13a6.17,6.17,0,0,1-3.26,1.91l-10.15,2.89s1,1.89,1.41,1.82,22.81-2.79,23.29-3a4.31,4.31,0,0,0,.5-3c-.46-1.66-1.92-2.36-1.42-7.1l.11-2.1Z" transform="translate(-575.91 -321.75)"/><path class="cls-13" d="M984.91,1262.57a3,3,0,0,1,.93,1.19c1.31,2.76,1.31,4.36-.72,5.81-2.31,1.64-5.2.33-9,.69-3.28.31-6.47,1.79-9.76,2.1-6.73.61-8.64-.51-9.42-1.5-1.16-1.46,1.17-3.09,4.84-4.26a65.58,65.58,0,0,1,8.92-2.16,3.42,3.42,0,0,1,.52-.07c-.12.05-.42.19-.68.27-1.66.57-5.35,1.91-3.67,2.76,2,1,15-.92,17.09-2.08a2.09,2.09,0,0,0,.82-2.67c0-.09.09-.13.17-.08Z" transform="translate(-575.91 -321.75)"/><path class="cls-13" d="M964.53,1100.74c-.6,8.38-3.42,16.38-2.95,24.76,1,18.54,2.83,51.16,2.79,52.09-1.44,38.07,5,62.79,8.54,82.35h13.66s3.51-44.21,3.51-82c0-15.36,5.82-63,6.13-72.72.48-14.73-2.44-13.28-2.44-13.28l-27.38-.75Z" transform="translate(-575.91 -321.75)"/><path class="cls-10" d="M1011.51,1254.43l-.15,1.27c-.46,1.82-1.42,4.47.84,7.13a6.17,6.17,0,0,0,3.26,1.91l10.15,2.89s-1,1.89-1.41,1.82-22.81-2.79-23.29-3a4.31,4.31,0,0,1-.5-3c.46-1.66,1.92-2.36,1.42-7.1l-.11-2.1Z" transform="translate(-575.91 -321.75)"/><path class="cls-13" d="M1000.6,1262.57a3,3,0,0,0-.93,1.19c-1.31,2.76-1.31,4.36.73,5.81,2.3,1.64,5.19.33,9,.69,3.29.31,6.47,1.79,9.76,2.1,6.73.61,8.64-.51,9.42-1.5,1.16-1.46-1.17-3.09-4.84-4.26a65.58,65.58,0,0,0-8.92-2.16,3.42,3.42,0,0,0-.52-.07c.12.05.42.19.68.27,1.67.57,5.35,1.91,3.67,2.76-2,1-15-.92-17.09-2.08a2.1,2.1,0,0,1-.82-2.67c0-.09-.09-.13-.17-.08Z" transform="translate(-575.91 -321.75)"/><path class="cls-13" d="M1021.69,1100.74c.61,8.38,2.66,16.38,2.19,24.76-1,18.54-2.83,51.16-2.8,52.09,1.44,38.07-5,62.79-8.53,82.35H998.88s-3.5-44.21-3.5-82c0-15.36-5.82-63-6.14-72.72-.47-14.73,2.44-13.28,2.44-13.28l21.86-.6Z" transform="translate(-575.91 -321.75)"/><path class="cls-9" d="M1019.78,1006.38l-1.68,65.16,1.44,25.77-1,.24a117.56,117.56,0,0,1-55.38-.24h0l4.45-22.12-.41-69.33,6-.21c2.06,4.14,8.29,8.24,20.81,8.09,14.07-.17,19.22-4.55,21.25-8.86Z" transform="translate(-575.91 -321.75)"/><path class="cls-4" d="M1002.61,999.83l-4,170.67a2.51,2.51,0,0,0,2.59,2.51h19.53a4.37,4.37,0,0,0,4.4-4c4.55-49.38-.37-75.72-2.84-95.83-1.91-15.48-2.79-28.85-2.53-34.39.69-15.09,3.23-24.14,3.3-29.23a4.94,4.94,0,0,0-1.79-3.47c-1.24-1.05-4.17-2-5.76-2.53Z" transform="translate(-575.91 -321.75)"/><path class="cls-4" d="M983.92,1000.07l4,170.67a2.52,2.52,0,0,1-2.59,2.51H965.76a4.38,4.38,0,0,1-4.4-4c-4.54-49.38.37-75.72,2.85-95.83,1.9-15.48,2.78-28.84,2.53-34.39-.69-15.08-3.23-24.14-3.31-29.23a5,5,0,0,1,1.79-3.46c1.25-1.06,4.18-2,5.76-2.54Z" transform="translate(-575.91 -321.75)"/><path class="cls-14" d="M1002.48,998.08h0c.19.72.11,4.17-.19,15.45,0,.28,0,.59,0,.87-.42,16.16-.76,30.28-.79,34.32l10.89-32.65-5.87-1.59,5.87-3.49h0c-1.34-5-5.16-10.43-9.89-12.93Z" transform="translate(-575.91 -321.75)"/><path class="cls-14" d="M984.45,997.94h0c-.74,3.62-.48,4.36-.21,15.63.39,16.51.77,31,.81,35.15l-10.75-32.65,5.86-1.59-5-3-.85-.51c1.34-5,5.13-10.4,9.86-12.9Z" transform="translate(-575.91 -321.75)"/><path class="cls-10" d="M1049,986.6c-.26-2.2-.2-2.8-1.34-3s-1.18.13-1.18.13.32-1.69-1-1.9c-1.13-.17-1.39.06-1.45.18a1.11,1.11,0,0,0-.88-1.44,1.72,1.72,0,0,0-1.44.05c-.26.17,0-1-.11-2.07s-.08-4.61-.64-4.94a1,1,0,0,0-1.59.52,13.6,13.6,0,0,0-.27,3c-.06.35,0,1.73,0,2.4s0,2.68,0,2.89-.19,4.11-.79,4.35-2.3-1.57-2.52-1.79a4.63,4.63,0,0,0-4.11-1.53c-2.43.27.64,1.73.64,1.73s3.41,3,3.66,3.86c.32,1.1,3.63,5,4,5.33.45,2.18.11,3.46-.19,3.73l6.41.43,1-.06c.74,0,.39-.12.39-.12l.18-3.09C1047.84,994.14,1049.26,988.54,1049,986.6Z" transform="translate(-575.91 -321.75)"/><path class="cls-11" d="M1041.33,981.07a1,1,0,0,0-.14.35c-.14.87-.71,4.58-.64,5.11s.5,1,.87,1c.83,0,1.1-.24,1.39-1.1.08-.23,1-4.18,1.06-4.17s.09.2.06.39-1.17,4.41-1.16,4.65,0,.91.48,1a1.49,1.49,0,0,0,1.67-.85c.2-.48,1.38-3.67,1.5-3.68s-.13.41-.25.68-1.23,3.31-1.3,3.5.42.67.78.48a10.19,10.19,0,0,0,2.25-2.08,1,1,0,0,1,.85-.62c.13,0,.12.19.09.35s-.88.73-1.27,1.06l-1.57,1.32a.8.8,0,0,1-.94,0c-.19-.13-.3-.29-.39-.28a2.07,2.07,0,0,1-1.45.26c-.57-.11-.58-1.15-.83-1-1.33.68-1.82-.23-2-.67a28.49,28.49,0,0,1,.26-3.6s.23-1.91.29-2,0-3.14,0-3.32.07-.39.08-.27.26,2.73.33,3.31c0,.08,0,.14,0,.2Z" transform="translate(-575.91 -321.75)"/><path class="cls-4" d="M1049.25,996.68s6.82,46.51-1.61,47c-12.83.78-27.57-11.18-27.57-11.18l.49-26.92.5.25c7.74,4,11,9.13,17.37,15.82l.67-25Z" transform="translate(-575.91 -321.75)"/><path class="cls-4" d="M967.74,1005s-6.5,2.64-9.74,7.11c-2.18,3-7.52,14.94-11.76,50.75-5.08,42.82-3.33,55.14-3.33,55.14l11.17,0,10.41-53,4.75-26Z" transform="translate(-575.91 -321.75)"/><path class="cls-10" d="M947.19,1131.31s3.7,2.51,3.94,2.86.27,1.34,0,1.4,0,.35-.08.76-.52,1.43-1.6.64-3.51-5.66-3.51-5.66Z" transform="translate(-575.91 -321.75)"/><path class="cls-11" d="M945.08,1118s-2.17,7.47-2.17,8.16a44.63,44.63,0,0,0,1.48,6,13.33,13.33,0,0,0,2,2l.14-16.22Z" transform="translate(-575.91 -321.75)"/><path class="cls-10" d="M951.68,1118s1.78,5.48,1.69,6.35a24.23,24.23,0,0,0-.56,4.75c0,.58.43,2.92,0,3a1.37,1.37,0,0,1-.81-.09,2.68,2.68,0,0,1-1.67-2.1,4.89,4.89,0,0,1,0-1.82c.27-.92-.44-1.69-.65-2.28s-.37-.62-.72-.49-.62.7-.71,1.74-.38,2.33-.35,2.82a6.81,6.81,0,0,1,0,1.66c0,.34.39.79.61,2.05.17,1,1.08,2,1.28,2.62a1.41,1.41,0,0,1-.6,1.57c-.35.08-1.21-.06-3-3.19a13.36,13.36,0,0,1-1.49-2.6,23.73,23.73,0,0,1-1.33-5.67c-.13-1.3,2.23-8.35,2.23-8.35Z" transform="translate(-575.91 -321.75)"/><path class="cls-13" d="M972.52,982.53c-2.64-7.29-.69-18.36,6.93-24.75l5.07-2.92c2-1.85,6.82-3,9.15-1.78l9.88,2.59s10.4,25.87,2.86,20.7c-3.19-2.19-9.26-2.22-10.41-12.85-3.55,6.2-11.14,10.89-16.4,16.15a7.61,7.61,0,0,0-2.29,4.52,6.91,6.91,0,0,0,1.63,5.11c4.11,5.39,11.69,19.73,8,24.48-10.71,13.69-1.34,20.08-7.44,25.14-5.56,4.61-13.69,2.28-17.11-1.51-5.77-6.43,5.62-12.92.66-24.51-1.89-4.44-.28-7.72,3.47-11.71a18.32,18.32,0,0,0,3.18-4.21A13.78,13.78,0,0,0,971,992.6Z" transform="translate(-575.91 -321.75)"/><path class="cls-10" d="M909.4,886.06s-1.56,5.59-1.29,6.35,8.43,3.64,9.82,3.63c.2,0,6.44.92,7,1s1.1-.7.26-1.37c-.42-.34-4.81-1.22-5.17-1.52-.19-.16-.16-.19.1-.15,1.2.23,1.91.5,2.67.69.38.1,1.31.29,2.28.47s2,.37,2.54.45c.88.12,1.28,0,1.32-.79s-.76-1.13-2.21-1.31-5.81-1.2-5.78-1.45.53-.12.79,0,2.52.51,3.92.8,3.67.72,4.17.47c.26-.13.3-.22.33-.78s-.49-.79-1.12-.89c-4.18-.7-7.18-1.49-7.57-1.59s-.25-.21,0-.26a15.56,15.56,0,0,1,1.85.27c1,.17,1.64.35,1.89.38s3.63.67,4.33.32c.28-.13.71-1-.62-1.33s-7.78-2.26-8.65-2.41-3-1-3.45-1.93c-.56-1.25,2.59-3.05,2.9-3.52.52-.78,1-2.61.15-3.4-.45-.43-.17,0-1.7,1.58a9.58,9.58,0,0,1-3.8,2.66c-.29.21-3.47,2.74-3.47,2.74Z" transform="translate(-575.91 -321.75)"/><path class="cls-17" d="M854.89,826.26a10.13,10.13,0,0,0-11.56,3.66c-1.49,2.07-1.5,6.15-1.52,8,0,3.59,1.05,18.56,19.52,46,3.23,4.78,46.81,10.69,46.81,10.69l2.29-11-33.71-13-5.62-18.09a139.57,139.57,0,0,0-6.61-17.22h0a14.52,14.52,0,0,0-9.6-9Z" transform="translate(-575.91 -321.75)"/><path class="cls-10" d="M867.57,810.31s-3.85,11.3-2.27,16.32c1.13,3.59-19.34-5.71-19.34-5.71s7.46-11.86,6.24-24.57C851.83,792.43,867.57,810.31,867.57,810.31Z" transform="translate(-575.91 -321.75)"/><path class="cls-11" d="M855.35,797.63c.21,8.1,4.59,12.84,10.92,17.16.66-2.59,1.3-4.48,1.3-4.48S859.85,801.54,855.35,797.63Z" transform="translate(-575.91 -321.75)"/><path class="cls-10" d="M850.19,790c-.53,11.62,6.9,16.71,16.73,22.55,7.2,4.28,11-9,11.5-20.58s-4-24-12.19-22.33C861,770.73,850.71,778.41,850.19,790Z" transform="translate(-575.91 -321.75)"/><path class="cls-13" d="M850.56,802.53c-5.95-7.77-10-12.62-7.93-18.87s8.82-2.39,15.18-9.15c17-18.07,24.62-6.64,25.28,2,.59,7.86-10.75,10.39-16.69,10.4-1.34,0-2.7,2.43-4.26,4.44a2.28,2.28,0,0,1-3.43.18l-1.17-.94a2.83,2.83,0,0,0-4.41,1.07,3.39,3.39,0,0,0,.4,3h0c1.5,3.07,2.52,5.28,1.17,8.41h0a2,2,0,0,1-2.65,1Z" transform="translate(-575.91 -321.75)"/><path class="cls-10" d="M853.18,1071.27l0,1.33c-.21,2-1.07,5.72,1.63,8.12a5.18,5.18,0,0,0,3.23,1.33l9.72,3s1-.21.57-.22-23.73.65-24.25.57a4.6,4.6,0,0,1-.94-3c.22-1.79,1.81-2.73.6-7.56l.22-2Z" transform="translate(-575.91 -321.75)"/><path class="cls-13" d="M843.69,1080a.35.35,0,0,0-.5,0c-.8.83-1.57,3.23-1,6,.3,1.5,1.94,3.22,5.61,2.34a26.09,26.09,0,0,1,11.64.25,18.46,18.46,0,0,0,8.83-.74c1.35-.48,3.46-2.08,2.5-3.53-.76-1.13-9.21-2.69-11.56-3.14s-4.17-2.83-5-2.83-.62,1-1.5,1.74c-2.32,2-5.73,1.59-7.52.84A4.71,4.71,0,0,1,843.69,1080Z" transform="translate(-575.91 -321.75)"/><path class="cls-13" d="M874.76,924.53a95.22,95.22,0,0,0-.74-11.11c-1.56-12.38-7.17-13.15-16.83-13.15-8.29,0-15.47,6.23-18.89,15.28a31.08,31.08,0,0,0-1.55,15.79l1.11,7.12c2,16.38,4.79,57.12,4.94,58.18.7,5-2.16,40.36.25,81.26h12.43s9.09-45.29,15.84-82c2.61-14.17,2-15.18,4-61.7Z" transform="translate(-575.91 -321.75)"/><path class="cls-10" d="M884.69,1071.27l0,1.33c-.21,2-1.07,5.72,1.62,8.12a5.18,5.18,0,0,0,3.23,1.33l9.73,3s1-.21.56-.22-23.73.65-24.24.57a4.59,4.59,0,0,1-1-3c.22-1.79,1.81-2.73.61-7.56l.22-2Z" transform="translate(-575.91 -321.75)"/><path class="cls-13" d="M875.21,1080a.36.36,0,0,0-.51,0c-.79.83-1.57,3.23-1,6,.3,1.5,1.94,3.22,5.6,2.34a26.07,26.07,0,0,1,11.64.25,18.45,18.45,0,0,0,8.83-.74c1.35-.48,3.47-2.08,2.5-3.53-.75-1.13-9.21-2.69-11.56-3.14s-4.16-2.83-5-2.83-.62,1-1.5,1.74c-2.32,2-5.74,1.59-7.52.84A4.71,4.71,0,0,1,875.21,1080Z" transform="translate(-575.91 -321.75)"/><path class="cls-13" d="M849.32,932.18c2,16.38,24.62,62.18,24.77,63.23.7,5-2.7,41.59-.28,82.49h12.44s8.51-45,15.26-81.71c2.6-14.16-12.83-53.82-20.16-95h0a26.47,26.47,0,0,0-31.67,24.57Z" transform="translate(-575.91 -321.75)"/><path class="cls-4" d="M886.37,986.92a6.16,6.16,0,0,1-6.14,6.38H835.72a6,6,0,0,1-6.13-5.92c.56-40.64,5.32-69.82,6.77-90.65,1.39-20-.4-37.07,1-54.62.84-10.46,3.28-15,6.18-19.37,1.09-1.65,2.46-3.52,4.56-4.1l.87-.26c7.59-1.92,18,8.71,23.48,13.09h0c5.15,6.61,9.15,13.8,9.76,22.18Z" transform="translate(-575.91 -321.75)"/><path class="cls-14" d="M882.2,853.13a40.54,40.54,0,0,0-10.34-23.77,22.49,22.49,0,0,0-1.6-1.62c-1-.87-2-1.69-3-2.46L862.74,822c-5.84-4.5-7.48-5.24-7.48-5.24l-5.46-3.88c-.56-.22-1,1.45-1.16,2-.34.94-2.18,4.64-2.18,4.64l23.14,13.83-4.5.22,2.87,1.93C874.37,839.78,882.2,853.13,882.2,853.13Z" transform="translate(-575.91 -321.75)"/><path class="cls-21" d="M952.23,931,924.6,830.64,925,805h0l2.79-5.09a2.36,2.36,0,0,0-2-3.5l-35.16-.59a2.36,2.36,0,0,0-2.14,3.43l2.62,5.18-.43,25.67-31,99.38a21.13,21.13,0,0,0,20,26.94h0a225.11,225.11,0,0,0,51.69.87h0A21.14,21.14,0,0,0,952.23,931Z" transform="translate(-575.91 -321.75)"/><path class="cls-7" d="M949.71,921.85l-87.12-1.52-2.86,9.12a21.13,21.13,0,0,0,20,26.94h0a225.11,225.11,0,0,0,51.69.87A21.14,21.14,0,0,0,952.23,931Z" transform="translate(-575.91 -321.75)"/><path class="cls-22" d="M949.71,921.85c.68,4.37-19.6,7.76-43.68,7.36s-44-4.39-43.45-8.83c.49-3.72,19.65-7.76,43.72-7.36S949.19,918.55,949.71,921.85Z" transform="translate(-575.91 -321.75)"/><path class="cls-23" d="M890.56,935.36l-8.56-.77a2.19,2.19,0,0,1-1.88-2.65l20.65-101.08a2,2,0,0,0,0-.42l.16-9.35a2.16,2.16,0,0,1,2.16-2.16h.32a2.16,2.16,0,0,1,2.09,2.23l-.16,9.54a1.94,1.94,0,0,1,0,.24l-12.5,102.51A2.15,2.15,0,0,1,890.56,935.36Z" transform="translate(-575.91 -321.75)"/><path class="cls-23" d="M923.52,834.57l20.86,95.93c.27,1.22.06,2.44-.44,2.6l-3.4,1.08c-.45.14-1-.63-1.17-1.74l-17.72-97.61h0a1.14,1.14,0,0,1,1.79-.33Z" transform="translate(-575.91 -321.75)"/><path class="cls-10" d="M896.43,898.86s-2.85,5.06-2.77,5.86,7.32,5.54,8.68,5.86c.19,0,6,2.44,6.53,2.65s1.24-.41.58-1.27c-.33-.43-4.38-2.33-4.66-2.7-.15-.21-.1-.23.13-.13,1.12.51,1.74.94,2.43,1.31.35.18,1.2.59,2.1,1s1.82.82,2.36,1c.83.33,1.26.28,1.48-.45s-.48-1.28-1.84-1.8-5.35-2.55-5.27-2.78.55,0,.78.15,2.32,1.1,3.61,1.72,3.4,1.57,3.94,1.45c.29-.07.35-.14.51-.69s-.29-.87-.87-1.13c-3.9-1.67-6.63-3.15-7-3.34s-.19-.26.08-.25a15.68,15.68,0,0,1,1.74.71c.91.39,1.5.72,1.74.81s3.37,1.51,4.13,1.35c.3-.07.91-.78-.29-1.44s-7-4.06-7.82-4.41-2.71-1.75-2.89-2.7c-.25-1.34,3.24-2.34,3.66-2.73.68-.62,1.55-2.3,1-3.26-.34-.53-.15-.09-2,1.13a9.61,9.61,0,0,1-4.32,1.68c-.34.13-4,1.83-4,1.83Z" transform="translate(-575.91 -321.75)"/><path class="cls-17" d="M857.76,827.78a10.15,10.15,0,0,0-12.1.79c-1.94,1.67-2.92,5.63-3.38,7.4-.91,3.47-3.41,18.27,8,49.3,2,5.42,42.9,21.55,42.9,21.55L898,896.66,868.4,876l-1.14-18.91A142.42,142.42,0,0,0,865,838.78h0a14.53,14.53,0,0,0-7.19-11Z" transform="translate(-575.91 -321.75)"/><path class="cls-10" d="M2029.26,1005s5.85,5.36,3.48,12.6c-2.11,6.47,19.53-2.35,19.53-2.35s-4.13-8-5.4-11.69c-1-2.84-1.34-11.88-1.34-11.88l-6.11,1.61Z" transform="translate(-575.91 -321.75)"/><path class="cls-11" d="M2042.81,996.4c-2.79,7.1-6.39,10.6-11.21,11.62a11.23,11.23,0,0,0-1.19-1.73l10.95-11.89Z" transform="translate(-575.91 -321.75)"/><path class="cls-10" d="M2020.05,982.06c.07,12.57,4.19,23.67,9,24.29,5.32.69,18.3-8.07,19.46-18.93s-3.3-20.81-11.06-22C2026.19,963.65,2020,971.13,2020.05,982.06Z" transform="translate(-575.91 -321.75)"/><path class="cls-13" d="M2017.75,973c1.16-7.18,9.82-12.69,20.37-10.4a11.74,11.74,0,0,1,6.34-7.06c6.63-2.76,13.49,2.46,16.25,9.09,2.63,6.33-.56,11.33-6.62,14.17.41,2.72.64,5.93,0,8.06a19.8,19.8,0,0,1-4.39,7.55,11.71,11.71,0,0,1-2.09,2,12.92,12.92,0,0,1-1.67,1.13c-1.73.78-3.31.26-3.76-1.37a11.24,11.24,0,0,1,.25-6.62c1.24-3.63-1.62-4.12-4-3.77a2.11,2.11,0,0,1-2.61-2.25l0-.28a3.85,3.85,0,0,0-1.15-2.54,6.49,6.49,0,0,0-2.87-1.15C2025.21,978.43,2016.68,979.68,2017.75,973Z" transform="translate(-575.91 -321.75)"/><path class="cls-10" d="M1999.21,1253.78l.15,1.22c.45,1.75,1.44,3,.06,6a6.26,6.26,0,0,1-3.69,2.82l-8.57,1.55s.27,3.16.63,3.08,20.82-3,21.26-3.1a4.35,4.35,0,0,0,.42-2.91,14.39,14.39,0,0,1-.77-7.27l.39-1.62Z" transform="translate(-575.91 -321.75)"/><path class="cls-13" d="M1992.4,1265.13a.47.47,0,0,1,.15-.57,4,4,0,0,1,1.63-.5l1.48-.26a33.69,33.69,0,0,0-7.94,1.1c-3.42.88-5.32,1.79-4.47,3.34.57,1,2.3,2.21,8.48,2.07,2.89-.07,5.75-1.18,8.63-1.35h.34c.9,0,1.77.07,2.6.15,2.28.31,4.12.84,5.76-.22,2-1.26,2.07-2.8,1.08-5.54a3.8,3.8,0,0,0-.41-.8c-.07-.12-.09-.12-.21-.29l-.13-.15c-.06-.06-.19,0-.18.09h0a1.32,1.32,0,0,1-.33,1.17,4.33,4.33,0,0,1-1.24.82,28.86,28.86,0,0,1-2.87,1.1,8.61,8.61,0,0,1-1.81.4,50.3,50.3,0,0,1-9.33.16,2,2,0,0,1-1.23-.72Z" transform="translate(-575.91 -321.75)"/><path class="cls-13" d="M2014.19,1108c-9,25.07-21.11,54.16-22.14,67.94-2.68,35.76,6.54,82.71,6.54,82.71l11.91,0c11.93-37.84,5.06-75,6.89-79.59.38-1,24.51-33.32,30.2-48.27l2.7-6.45a31.12,31.12,0,0,0,2.37-15.1c-.92-9.15-5.91-16.4-13.38-18-8.71-1.89-17.65-.6-21.88,3.19Z" transform="translate(-575.91 -321.75)"/><path class="cls-10" d="M2099.78,1232.46l-.19.13c1.59.82,2.92,3,4.26,6a6.11,6.11,0,0,1,0,4.5l-4.32,7.5s2.51,1.88,2.69,1.56,11.09-17.68,11.26-18.11a4.44,4.44,0,0,0-1.89-2.23c-1.46-.73-2.81-.85-5.41-4.88l-1-2Z" transform="translate(-575.91 -321.75)"/><path class="cls-13" d="M2102.69,1246.54a.5.5,0,0,1-.33-.49,4.09,4.09,0,0,1,.68-1.56l.75-1.29a33.63,33.63,0,0,0-4.25,6.72c-1.53,3.17-2.07,5.2-.38,5.58,1.14.26,3.11-.28,6.94-5,1.79-2.22,2.8-5.12,4.51-7.41l.2-.25c.58-.68,1.18-1.3,1.77-1.87,1.69-1.52,3.25-2.56,3.51-4.5.32-2.31-.75-3.41-3.41-4.47a3.41,3.41,0,0,0-.85-.22,2.43,2.43,0,0,0-.35,0h-.2a.12.12,0,0,0,0,.2h0a1.35,1.35,0,0,1,.65,1,4.62,4.62,0,0,1-.18,1.48,30.33,30.33,0,0,1-1,2.9,8.39,8.39,0,0,1-.86,1.62,48.69,48.69,0,0,1-5.83,7.15,1.89,1.89,0,0,1-1.32.46Z" transform="translate(-575.91 -321.75)"/><path class="cls-13" d="M2020,1126.1c17.25,38.54,15.21,46.31,23.3,56.7,21,27,57.57,53.58,57.57,53.58l7.68-9.14c-15.38-34.5-42.66-54.47-44.22-58.89-.33-.93-3-39.56-8.36-53.84l-2.12-6.31a28.24,28.24,0,0,0-7.93-12.2c-6.58-5.85-15-7.69-21.66-3.93-7.76,4.37-9.33,12.27-8.63,23.06Z" transform="translate(-575.91 -321.75)"/><path class="cls-4" d="M2016.51,1075.23c0-.16,0-.32,0-.47-1.15-8.81,0-13.8-1.8-20.24a33.75,33.75,0,0,1-1.41-7.08c-.18-3.75,1.5-6.78,1.88-8.55a8.59,8.59,0,0,1,.94-2.5l1.1-1.9a7.9,7.9,0,0,1,1.16-1.53l11.79-12.26a6,6,0,0,1,.64-.59c5-4.16,11.06-11.27,17.76-9.48l.29.19c1.9.56,4.59,1.74,5.63,3.27,3.66,5.41,5.6,8.36,4.12,20.79-1.23,10.3-6.78,23.79-5.32,42.34,1.06,13.56,13.39,17.88,21.67,90.71.05.46.09,1,.12,1.66a8,8,0,0,1-7.94,8.38l-35.94.25a8,8,0,0,1-8.05-7.46Z" transform="translate(-575.91 -321.75)"/><path class="cls-14" d="M2036.72,1014.88a72.57,72.57,0,0,1,7-5.16l4.41-2.83c.52-.21,1.17,1,1.44,1.45.46.8,2.4,3.78,2.4,3.78l-23.9,13.47,3.9,1-3.52,1.62a28,28,0,0,0-8.51,5.47c-8.41,7.8-6.89,13.88-4.93,22.31l.3,1.47c-.17-.2-1.38-4.38-1.79-5.87-2.25-8.16-.64-15.32,6.42-22.35,2.37-2.36,6.41-5.73,9.35-8.42a35.13,35.13,0,0,1,2.83-2.34Z" transform="translate(-575.91 -321.75)"/><path class="cls-7" d="M2014.31,1034.35a63,63,0,1,0-64.91,76c18.86,1.91,22.09,1.76,29.12,12.41,5.36,8.12,20,7.6,20,7.6l23.75-13.61s17.49-25.12,17.62-29.17c.42-13.55-4-16.28-14.26-23.08-2.23-1.47-3.6-8.46-6.86-16.09A75.63,75.63,0,0,1,2014.31,1034.35Z" transform="translate(-575.91 -321.75)"/><path class="cls-5" d="M1997.34,1130.45l17.72,17.14c3.45,3.33,10.8-.23,17.89-5.57,1.5.66,3.89-.17,5.77-2.11l12-12.44c1.83-1.89,2.59-4.24,2-5.73,5.34-7.45,8.45-14.75,4.91-18.17l-17.72-17.14Z" transform="translate(-575.91 -321.75)"/><path class="cls-14" d="M2012.57,1114.7a.69.69,0,0,1-.85.11l-92.32-53.66a.69.69,0,1,1,.7-1.19l92.32,53.65a.7.7,0,0,1,.25,1A.71.71,0,0,1,2012.57,1114.7Z" transform="translate(-575.91 -321.75)"/><path class="cls-14" d="M2022.23,1104.71l-.13.1a.69.69,0,0,1-1-.22L1964,1013.45a.69.69,0,1,1,1.18-.73l57.15,91.14A.69.69,0,0,1,2022.23,1104.71Z" transform="translate(-575.91 -321.75)"/><path class="cls-14" d="M1936.43,1050a1.77,1.77,0,0,1-1.58.39,6.18,6.18,0,0,1-2.22-.82,6,6,0,0,1-1.79-1.56c-.67-.91-.49-1.52-.32-1.8s.62-.74,1.74-.59a6,6,0,0,1,2.22.82h0a6.17,6.17,0,0,1,1.79,1.55c.66.92.48,1.53.32,1.81A1.27,1.27,0,0,1,1936.43,1050Zm-5-3.28v0s0,.29.27.66a5.65,5.65,0,0,0,3.3,2c.46.06.68,0,.71-.09s0-.29-.26-.67a5.28,5.28,0,0,0-1.48-1.27h0a5.06,5.06,0,0,0-1.82-.68A1,1,0,0,0,1931.42,1046.75Z" transform="translate(-575.91 -321.75)"/><path class="cls-14" d="M1953.78,1030.29c-.27.18-.88.38-1.81-.26a6,6,0,0,1-1.62-1.73h0a6.13,6.13,0,0,1-.9-2.19c-.18-1.12.26-1.58.54-1.76s.88-.38,1.81.25a6.19,6.19,0,0,1,1.61,1.74,6.06,6.06,0,0,1,.9,2.19,1.76,1.76,0,0,1-.33,1.6A1.27,1.27,0,0,1,1953.78,1030.29Zm-3.3-4.35a5.17,5.17,0,0,0,.75,1.8h0a5,5,0,0,0,1.32,1.43c.38.27.62.28.67.24s.14-.25.07-.71a5.09,5.09,0,0,0-.75-1.8,5.17,5.17,0,0,0-1.32-1.44c-.38-.26-.62-.27-.67-.24h0A1,1,0,0,0,1950.48,1025.94Z" transform="translate(-575.91 -321.75)"/><rect class="cls-14" x="1951.92" y="1053.82" width="17.3" height="2.54" rx="1.09" transform="translate(-736.69 1409.3) rotate(-45.96)"/><rect class="cls-14" x="1985.65" y="1046.71" width="2.44" height="77.55" transform="translate(-750.53 1437.47) rotate(-45.96)"/><rect class="cls-14" x="1990.5" y="1041.7" width="2.44" height="77.55" transform="translate(-745.45 1439.42) rotate(-45.96)"/><path class="cls-14" d="M1938.16,1044.37a43.78,43.78,0,0,1-9.32,7.49c-8.55,4.94-8.19,8.14-8.19,8.17a.59.59,0,0,1-.43.67.49.49,0,0,1-.64-.37c-.08-.4-.51-4,8.79-9.41,9.48-5.48,16.55-16.29,17.7-18.86,2.17-4.84,5.1-6.82,8.8-9.32l1.2-.82c3.9-2.68,7.13-8.78,7.16-8.84a.59.59,0,0,1,.74-.28.51.51,0,0,1,.22.72c-.14.26-3.41,6.43-7.57,9.29l-1.2.81c-3.54,2.4-6.34,4.29-8.36,8.8A53.77,53.77,0,0,1,1938.16,1044.37Z" transform="translate(-575.91 -321.75)"/><rect class="cls-14" x="1941.99" y="1036.91" width="0.5" height="32.29" rx="0.22" transform="translate(-385.18 2077.95) rotate(-66.02)"/><rect class="cls-14" x="1958" y="1020.36" width="0.5" height="32.29" rx="0.22" transform="translate(3596.65 791.77) rotate(154.1)"/><path class="cls-10" d="M1994.73,1076.62s1.16,5.46.85,6.17-8.31,3-9.65,2.86c-.19,0-6.23.48-6.75.53s-1-.74-.17-1.33c.43-.3,4.69-.87,5-1.13.2-.14.17-.18-.07-.15-1.18.14-1.87.36-2.61.49-.37.07-1.27.19-2.21.31s-1.9.23-2.46.27c-.86.06-1.24-.11-1.23-.84s.81-1,2.21-1.12,5.64-.78,5.62-1-.5-.15-.75-.08-2.44.33-3.8.52-3.57.46-4,.19c-.25-.14-.28-.23-.27-.77s.52-.72,1.13-.78c4.05-.41,7-1,7.36-1s.24-.18,0-.25a15,15,0,0,0-1.8.14c-1,.1-1.59.23-1.84.25s-3.52.41-4.17,0c-.25-.14-.61-1,.68-1.23s7.61-1.68,8.44-1.77,3-.82,3.43-1.64c.62-1.16-2.28-3.08-2.56-3.56-.44-.77-.76-2.56.08-3.26.46-.39.16,0,1.52,1.62a9.38,9.38,0,0,0,3.48,2.79c.27.22,3.15,2.85,3.15,2.85Z" transform="translate(-575.91 -321.75)"/><path class="cls-17" d="M2036.56,1031.48a18.83,18.83,0,0,1,1.71-5.39,12.94,12.94,0,0,1,5.87-5.9l1.58-.86c4.16-1.73,6.93-.33,9.4,3.21a18.66,18.66,0,0,1,2.47,8.29c0,3.38-3.94,24.3-11.38,45.47-2.42,6.91-51.19,8.75-51.19,8.75l-1.6-11.86,39-7.65,1.83-20.15Z" transform="translate(-575.91 -321.75)"/><rect class="cls-13" x="467.35" y="112.25" width="616.22" height="402.9"/><rect class="cls-16" x="467.35" y="121.84" width="616.22" height="402.9"/><rect class="cls-17" x="1436.07" y="522.22" width="68.66" height="7.66" transform="translate(265.77 -1225.22) rotate(46.57)"/><rect class="cls-17" x="1458.81" y="508.12" width="50.47" height="7.66" transform="translate(259.81 -1239.54) rotate(46.57)"/><rect class="cls-17" x="1419.8" y="541.72" width="69.61" height="7.66" transform="translate(275 -1207.65) rotate(46.57)"/><rect class="cls-17" x="1401.17" y="555.78" width="69.61" height="7.66" transform="translate(279.39 -1189.73) rotate(46.57)"/><rect class="cls-17" x="1404.74" y="571.7" width="31.35" height="7.66" transform="translate(286.09 -1173.45) rotate(46.57)"/><circle class="cls-13" cx="894.49" cy="175.78" r="9.08"/><circle class="cls-13" cx="871.26" cy="179.75" r="9.08"/><circle class="cls-13" cx="1426.9" cy="516.14" r="9.08" transform="translate(20.82 1464.54) rotate(-76.72)"/><circle class="cls-13" cx="1412.41" cy="534.71" r="9.08" transform="translate(-8.41 1464.73) rotate(-76.72)"/><circle class="cls-13" cx="833.96" cy="242.63" r="9.08"/><circle class="cls-7" cx="1498.9" cy="526.04" r="9.08" transform="translate(-663.12 291.9) rotate(-22.5)"/><circle class="cls-7" cx="1494.86" cy="551.89" r="9.08" transform="translate(-673.32 292.32) rotate(-22.5)"/><circle class="cls-7" cx="1478.12" cy="570.39" r="9.08" transform="translate(102.42 1616.31) rotate(-80.78)"/><circle class="cls-7" cx="883.07" cy="262.32" r="9.08"/><circle class="cls-7" cx="855.88" cy="265.79" r="9.08"/><circle class="cls-7" cx="1501.87" cy="497.99" r="9.08" transform="translate(-488.15 886.09) rotate(-45)"/><rect class="cls-17" x="1296.86" y="658.95" width="68.66" height="7.66" transform="translate(1172.66 1768.3) rotate(-132.77)"/><rect class="cls-17" x="1292.14" y="672.88" width="50.47" height="7.66" transform="translate(1139.24 1781.56) rotate(-132.77)"/><rect class="cls-17" x="1312.4" y="639.62" width="69.61" height="7.66" transform="translate(1213.74 1747.62) rotate(-132.77)"/><rect class="cls-17" x="1331.19" y="625.78" width="69.61" height="7.66" transform="translate(1255.45 1738.16) rotate(-132.77)"/><rect class="cls-17" x="1366.06" y="610.04" width="31.35" height="7.66" transform="translate(1293.44 1723.29) rotate(-132.77)"/><path class="cls-13" d="M1324.69,696.35a9.08,9.08,0,1,1,9,9.18A9.08,9.08,0,0,1,1324.69,696.35Z" transform="translate(-575.91 -321.75)"/><path class="cls-13" d="M1345.06,687.48a9.08,9.08,0,1,1,9,9.18A9.08,9.08,0,0,1,1345.06,687.48Z" transform="translate(-575.91 -321.75)"/><path class="cls-13" d="M1365.49,673.07a9.08,9.08,0,1,1,9,9.18A9.08,9.08,0,0,1,1365.49,673.07Z" transform="translate(-575.91 -321.75)"/><path class="cls-13" d="M1380.2,654.68a9.08,9.08,0,1,1,9,9.18A9.09,9.09,0,0,1,1380.2,654.68Z" transform="translate(-575.91 -321.75)"/><path class="cls-13" d="M1383.08,625a9.08,9.08,0,1,1,9,9.18A9.08,9.08,0,0,1,1383.08,625Z" transform="translate(-575.91 -321.75)"/><path class="cls-7" d="M1292.6,659.63a9.08,9.08,0,1,1,9,9.19A9.08,9.08,0,0,1,1292.6,659.63Z" transform="translate(-575.91 -321.75)"/><path class="cls-7" d="M1298,636.55a9.08,9.08,0,1,1,9,9.18A9.08,9.08,0,0,1,1298,636.55Z" transform="translate(-575.91 -321.75)"/><path class="cls-7" d="M1314.9,618.24a9.08,9.08,0,1,1,9,9.18A9.09,9.09,0,0,1,1314.9,618.24Z" transform="translate(-575.91 -321.75)"/><path class="cls-7" d="M1334.19,604.78a9.08,9.08,0,1,1,9,9.18A9.08,9.08,0,0,1,1334.19,604.78Z" transform="translate(-575.91 -321.75)"/><path class="cls-7" d="M1361.43,601.62a9.08,9.08,0,1,1,9,9.18A9.07,9.07,0,0,1,1361.43,601.62Z" transform="translate(-575.91 -321.75)"/><path class="cls-7" d="M1290.32,690.37a9.08,9.08,0,1,1,9,9.18A9.09,9.09,0,0,1,1290.32,690.37Z" transform="translate(-575.91 -321.75)"/><rect class="cls-17" x="1233.6" y="714.67" width="68.66" height="7.66" transform="translate(342.25 -1018.02) rotate(46.57)"/><rect class="cls-17" x="1256.34" y="700.57" width="50.47" height="7.66" transform="translate(336.29 -1032.34) rotate(46.57)"/><rect class="cls-17" x="1217.33" y="734.17" width="69.61" height="7.66" transform="translate(351.49 -1000.45) rotate(46.57)"/><rect class="cls-17" x="1198.7" y="748.23" width="69.61" height="7.66" transform="translate(355.87 -982.52) rotate(46.57)"/><rect class="cls-17" x="1202.27" y="764.15" width="31.35" height="7.66" transform="translate(362.57 -966.25) rotate(46.57)"/><circle class="cls-13" cx="692.02" cy="365.63" r="9.08"/><circle class="cls-13" cx="1244.7" cy="693.95" r="9.08" transform="translate(-215.58 1489.66) rotate(-80.78)"/><circle class="cls-13" cx="1224.43" cy="708.59" r="9.08" transform="translate(-718.33 751.59) rotate(-45)"/><circle class="cls-13" cx="1209.94" cy="727.16" r="9.08" transform="translate(-735.7 746.78) rotate(-45)"/><circle class="cls-13" cx="1202.88" cy="752.06" r="9.08" transform="translate(-381.34 1428.22) rotate(-76.72)"/><circle class="cls-7" cx="1296.3" cy="718.49" r="9.08" transform="translate(-276.71 1493.29) rotate(-76.72)"/><circle class="cls-7" cx="716.48" cy="422.59" r="9.08"/><circle class="cls-7" cx="699.74" cy="441.09" r="9.08"/><circle class="cls-7" cx="1256.51" cy="776.52" r="9.08" transform="translate(-363.83 1499.26) rotate(-76.72)"/><circle class="cls-7" cx="1229.32" cy="780" r="9.08" transform="translate(-388.16 1475.47) rotate(-76.72)"/><circle class="cls-13" cx="826.54" cy="270.33" r="9.08"/><circle class="cls-13" cx="1201.34" cy="782.89" r="9.08" transform="translate(-339.78 1521.56) rotate(-80.78)"/><rect class="cls-14" x="910.59" y="278.52" width="145.88" height="13.89"/><rect class="cls-14" x="910.59" y="300.77" width="109.18" height="13.89"/><rect class="cls-14" x="860.84" y="449.25" width="145.88" height="13.89"/><rect class="cls-14" x="860.84" y="471.51" width="105.45" height="13.89"/><rect class="cls-14" x="569.1" y="163.89" width="145.88" height="13.89"/><rect class="cls-14" x="569.1" y="186.15" width="100.08" height="13.89"/><rect class="cls-14" x="495.87" y="292.5" width="146.45" height="13.89"/><rect class="cls-14" x="495.87" y="314.76" width="146.45" height="13.89"/><rect class="cls-14" x="495.87" y="337.01" width="97.04" height="13.89"/><rect class="cls-14" x="911.16" y="363.09" width="6.64" height="2.31"/><rect class="cls-14" x="853.87" y="363.09" width="6.64" height="2.31"/><rect class="cls-14" x="845.18" y="363.09" width="6.64" height="2.31"/><rect class="cls-14" x="919.36" y="363.09" width="6.64" height="2.31"/><rect class="cls-14" x="927.56" y="363.09" width="6.64" height="2.31"/><rect class="cls-14" x="935.76" y="363.09" width="6.64" height="2.31"/><rect class="cls-14" x="943.96" y="363.09" width="6.64" height="2.31"/><rect class="cls-14" x="952.06" y="363.09" width="6.64" height="2.31"/><rect class="cls-14" x="1530.13" y="678.81" width="6.64" height="2.31" transform="translate(277.58 1891.65) rotate(-90)"/><rect class="cls-14" x="1530.13" y="670.61" width="6.64" height="2.31" transform="translate(285.78 1883.46) rotate(-90)"/><rect class="cls-14" x="1530.13" y="662.41" width="6.64" height="2.31" transform="translate(293.98 1875.26) rotate(-90)"/><rect class="cls-14" x="1530.13" y="654.21" width="6.64" height="2.31" transform="translate(302.17 1867.06) rotate(-90)"/><rect class="cls-14" x="862.23" y="363.09" width="6.64" height="2.31"/><rect class="cls-14" x="870.43" y="363.09" width="6.64" height="2.31"/><rect class="cls-14" x="878.63" y="363.09" width="6.64" height="2.31"/><rect class="cls-14" x="886.82" y="363.09" width="6.64" height="2.31"/><rect class="cls-14" x="895.02" y="363.09" width="6.64" height="2.31"/><rect class="cls-14" x="903.12" y="363.09" width="6.64" height="2.31"/><rect class="cls-14" x="808.11" y="478.55" width="6.64" height="2.31"/><rect class="cls-14" x="816.3" y="478.55" width="6.64" height="2.31"/><rect class="cls-14" x="824.5" y="478.55" width="6.64" height="2.31"/><rect class="cls-14" x="832.7" y="478.55" width="6.64" height="2.31"/><rect class="cls-14" x="840.9" y="478.55" width="6.64" height="2.31"/><rect class="cls-14" x="1340.05" y="764.38" width="6.64" height="2.31" transform="translate(279.47 -1023.38) rotate(41.93)"/><rect class="cls-14" x="1333.59" y="758.58" width="6.64" height="2.31" transform="translate(273.93 -1020.54) rotate(41.93)"/><rect class="cls-14" x="1346.28" y="769.97" width="6.64" height="2.31" transform="translate(284.81 -1026.11) rotate(41.93)"/><rect class="cls-14" x="1352.38" y="775.44" width="6.64" height="2.31" transform="translate(290.03 -1028.78) rotate(41.93)"/><rect class="cls-14" x="1358.48" y="780.92" width="6.64" height="2.31" transform="translate(295.25 -1031.45) rotate(41.93)"/><rect class="cls-14" x="1364.58" y="786.4" width="6.64" height="2.31" transform="translate(300.47 -1034.13) rotate(41.93)"/><rect class="cls-14" x="1370.68" y="791.88" width="6.64" height="2.31" transform="translate(305.68 -1036.8) rotate(41.93)"/><rect class="cls-14" x="1376.7" y="797.29" width="6.64" height="2.31" transform="translate(310.82 -1039.43) rotate(41.92)"/><rect class="cls-14" x="1336.27" y="490.44" width="6.64" height="2.31" transform="translate(2103.61 660.49) rotate(179.96)"/><rect class="cls-14" x="1328.07" y="490.44" width="6.64" height="2.31" transform="translate(2087.22 660.48) rotate(179.96)"/><rect class="cls-14" x="1319.87" y="490.45" width="6.64" height="2.31" transform="translate(2070.82 660.5) rotate(179.96)"/><rect class="cls-14" x="1311.67" y="490.46" width="6.64" height="2.31" transform="translate(2054.42 660.52) rotate(179.96)"/><rect class="cls-14" x="1303.47" y="490.46" width="6.64" height="2.31" transform="translate(2038.03 660.54) rotate(179.96)"/><rect class="cls-14" x="1380.25" y="526.33" width="6.64" height="2.31" transform="translate(1485.57 1522.15) rotate(-138.12)"/><rect class="cls-14" x="1386.72" y="532.13" width="6.64" height="2.31" transform="translate(1492.99 1536.58) rotate(-138.12)"/><rect class="cls-14" x="1374.03" y="520.75" width="6.64" height="2.31" transform="translate(1478.43 1508.26) rotate(-138.12)"/><rect class="cls-14" x="1367.92" y="515.28" width="6.64" height="2.31" transform="translate(1471.45 1494.63) rotate(-138.12)"/><rect class="cls-14" x="1361.82" y="509.8" width="6.64" height="2.31" transform="translate(1464.45 1481) rotate(-138.12)"/><rect class="cls-14" x="1355.71" y="504.33" width="6.64" height="2.31" transform="translate(1457.45 1467.39) rotate(-138.12)"/><rect class="cls-14" x="1349.61" y="498.85" width="6.64" height="2.31" transform="translate(1450.45 1453.76) rotate(-138.12)"/><rect class="cls-14" x="1343.58" y="493.45" width="6.64" height="2.31" transform="translate(1443.54 1440.3) rotate(-138.12)"/><rect class="cls-14" x="1111.39" y="712.64" width="6.64" height="2.31" transform="translate(-176.56 1505.74) rotate(-89.92)"/><rect class="cls-14" x="1111.4" y="704.44" width="6.64" height="2.31" transform="translate(-168.33 1497.58) rotate(-89.92)"/><rect class="cls-14" x="1111.41" y="696.24" width="6.64" height="2.31" transform="translate(-160.12 1489.4) rotate(-89.92)"/><rect class="cls-14" x="1111.42" y="688.04" width="6.64" height="2.31" transform="translate(-151.92 1481.22) rotate(-89.92)"/><rect class="cls-14" x="1156.96" y="745.32" width="6.64" height="2.31" transform="translate(1190.41 1664.16) rotate(-148.81)"/><rect class="cls-14" x="1164.39" y="749.82" width="6.64" height="2.31" transform="translate(1201.88 1676.35) rotate(-148.81)"/><rect class="cls-14" x="1149.81" y="740.99" width="6.64" height="2.31" transform="translate(1179.38 1652.42) rotate(-148.81)"/><rect class="cls-14" x="1142.8" y="736.75" width="6.64" height="2.31" transform="translate(1168.59 1640.9) rotate(-148.81)"/><rect class="cls-14" x="1135.78" y="732.5" width="6.64" height="2.31" transform="translate(1157.77 1629.39) rotate(-148.81)"/><rect class="cls-14" x="1128.77" y="728.25" width="6.64" height="2.31" transform="translate(1146.93 1617.89) rotate(-148.81)"/><rect class="cls-14" x="1121.75" y="724.01" width="6.64" height="2.31" transform="translate(1136.13 1606.38) rotate(-148.81)"/><rect class="cls-14" x="1114.82" y="719.81" width="6.64" height="2.31" transform="translate(1125.44 1595) rotate(-148.81)"/><polygon class="cls-13" points="777.03 9.94 771.17 7.61 628.52 116.07 634.38 118.4 777.03 9.94"/><polygon class="cls-13" points="773.88 9.94 779.74 7.61 922.39 116.07 916.54 118.4 773.88 9.94"/><circle class="cls-14" cx="1351.33" cy="331.12" r="9.37" transform="translate(-414.25 730.76) rotate(-45)"/></svg>